<?xml version="1.0" standalone="no"?>
<!DOCTYPE svg PUBLIC "-//W3C//DTD SVG 1.1//EN" "http://www.w3.org/Graphics/SVG/1.1/DTD/svg11.dtd" >
<svg xmlns="http://www.w3.org/2000/svg" xmlns:xlink="http://www.w3.org/1999/xlink" version="1.1">
<metadata>
Created by FontForge 20190801 at Wed May 30 19:40:41 2018
 By www-data
Copyright (c) 2014 by atipo. All rights reserved.
</metadata>
<defs>
<font id="GeomanistBook" horiz-adv-x="231" >
  <font-face 
    font-family="GeomanistBook"
    font-weight="400"
    font-stretch="normal"
    units-per-em="1000"
    panose-1="2 0 5 3 0 0 0 2 0 4"
    ascent="800"
    descent="-200"
    x-height="522"
    cap-height="700"
    bbox="-195 -264 1121 998"
    underline-thickness="50"
    underline-position="-100"
    unicode-range="U+0020-F6C3"
  />
<missing-glyph horiz-adv-x="508" 
d="M4 700h500v-700h-500v700zM424 650h-340l170 -255zM224 350l-170 255v-510zM454 95v510l-170 -255zM424 50l-170 255l-170 -255h340z" />
    <glyph glyph-name="ellipsis" unicode="&#x2e;&#x2e;&#x2e;" horiz-adv-x="722" 
d="M43 57q0 29 21 50t50 21t50 -21t21 -50t-21 -49.5t-50 -20.5t-50 20.5t-21 49.5zM290 57q0 29 21 50t50 21t50 -21t21 -50t-21 -49.5t-50 -20.5t-50 20.5t-21 49.5zM537 57q0 29 21 50t50 21t50 -21t21 -50t-21 -49.5t-50 -20.5t-50 20.5t-21 49.5z" />
    <glyph glyph-name=".notdef" horiz-adv-x="508" 
d="M4 700h500v-700h-500v700zM424 650h-340l170 -255zM224 350l-170 255v-510zM454 95v510l-170 -255zM424 50l-170 255l-170 -255h340z" />
    <glyph glyph-name=".null" horiz-adv-x="0" 
 />
    <glyph glyph-name="nonmarkingreturn" horiz-adv-x="333" 
 />
    <glyph glyph-name="space" unicode=" " horiz-adv-x="251" 
 />
    <glyph glyph-name="exclam" unicode="!" horiz-adv-x="275" 
d="M81 700h114l-9 -512h-97zM67 57q0 29 21 50t50 21t50 -21t21 -50t-21 -49.5t-50 -20.5t-50 20.5t-21 49.5z" />
    <glyph glyph-name="quotedbl" unicode="&#x22;" horiz-adv-x="334" 
d="M46 700h91l-6 -218h-80zM198 700h91l-6 -218h-80z" />
    <glyph glyph-name="numbersign" unicode="#" horiz-adv-x="654" 
d="M135 185h-107l17 85h107l33 159h-106l17 85h107l39 186h93l-38 -186h128l38 186h94l-38 -186h106l-16 -85h-108l-33 -159h107l-17 -85h-108l-38 -185h-94l38 185h-128l-38 -185h-94zM374 270l33 159h-128l-33 -159h128z" />
    <glyph glyph-name="dollar" unicode="$" horiz-adv-x="514" 
d="M122 189q38 -99 137 -99q48 0 76.5 25t28.5 69q0 40 -32.5 69.5t-78.5 50.5t-92.5 45t-79 68.5t-32.5 106.5q0 74 47 125t127 61v56h74v-56q70 -11 111 -52.5t58 -87.5l-92 -41q-39 82 -117 82q-45 0 -71 -24.5t-26 -61.5q0 -32 23.5 -57.5t58.5 -41.5t76.5 -37
t76.5 -43.5t58.5 -62t23.5 -91.5q0 -79 -48.5 -134.5t-131.5 -67.5v-76h-74v75q-82 8 -129.5 54t-65.5 102z" />
    <glyph glyph-name="percent" unicode="%" horiz-adv-x="781" 
d="M196 394q-70 0 -116 45.5t-46 113.5q0 67 46 113.5t115 46.5q71 0 118 -46.5t47 -113.5t-46.5 -113t-117.5 -46zM602 700h108l-532 -700h-107zM197 474q35 0 56 22.5t21 56.5q0 33 -22 56t-56 23t-55 -22.5t-21 -56.5q0 -33 22 -56t55 -23zM419 146q0 67 46.5 113.5
t115.5 46.5q71 0 118 -46.5t47 -113.5t-47 -113t-117 -46t-116.5 45.5t-46.5 113.5zM505 146q0 -34 21.5 -56.5t55.5 -22.5q35 0 56 22.5t21 56.5t-21.5 56.5t-56.5 22.5q-33 0 -54.5 -23t-21.5 -56z" />
    <glyph glyph-name="ampersand" unicode="&#x26;" horiz-adv-x="641" 
d="M480 59q-76 -72 -197 -72q-116 0 -183.5 59.5t-67.5 151.5q0 118 120 192q-67 73 -67 145q0 75 53.5 126.5t144.5 51.5q94 0 147.5 -50t53.5 -130q0 -110 -143 -194l135 -130q26 50 26 126h102q0 -122 -52 -204l71 -73l-75 -71zM186 530q0 -37 22.5 -66.5t66.5 -65.5
q110 60 110 132q0 41 -27.5 67.5t-73.5 26.5q-43 0 -70.5 -26.5t-27.5 -67.5zM284 85q76 0 125 49l-190 185q-35 -16 -56.5 -45.5t-21.5 -68.5q0 -55 41.5 -87.5t101.5 -32.5z" />
    <glyph glyph-name="quotesingle" unicode="'" horiz-adv-x="183" 
d="M46 700h91l-6 -218h-80z" />
    <glyph glyph-name="parenleft" unicode="(" horiz-adv-x="319" 
d="M164 34q0 -87 85 -87v-94q-193 0 -193 193v543q0 193 193 193v-94q-85 0 -85 -87v-567z" />
    <glyph glyph-name="parenright" unicode=")" horiz-adv-x="319" 
d="M155 601q0 87 -85 87v94q193 0 193 -193v-543q0 -193 -193 -193v94q85 0 85 87v567z" />
    <glyph glyph-name="asterisk" unicode="*" horiz-adv-x="431" 
d="M82 644l94 -54v110h78v-111l94 55l38 -64l-95 -55l96 -54l-39 -66l-94 55v-110h-78v110l-94 -55l-39 65l96 54l-96 55z" />
    <glyph glyph-name="plus" unicode="+" horiz-adv-x="550" 
d="M38 356h190v203h94v-203h190v-89h-190v-203h-94v203h-190v89z" />
    <glyph glyph-name="comma" unicode="," horiz-adv-x="228" 
d="M43 57q0 29 20.5 50t49.5 21q31 0 52 -20.5t21 -55.5q0 -114 -94 -189l-46 48q49 35 56 77q-27 5 -43 25t-16 44z" />
    <glyph glyph-name="hyphen" unicode="-" horiz-adv-x="354" 
d="M43 352h267v-99h-267v99z" />
    <glyph glyph-name="period" unicode="." horiz-adv-x="229" 
d="M43 57q0 29 21 50t50 21t50 -21t21 -50t-21 -49.5t-50 -20.5t-50 20.5t-21 49.5z" />
    <glyph glyph-name="slash" unicode="/" horiz-adv-x="439" 
d="M322 750h97l-302 -858h-97z" />
    <glyph glyph-name="zero" unicode="0" horiz-adv-x="565" 
d="M516 350q0 -183 -53.5 -273t-180.5 -90t-180 90t-53 273t53 273t180 90t180.5 -90t53.5 -273zM161 350q0 -52 2 -87.5t9.5 -70.5t20.5 -55.5t35 -33t54 -12.5t54.5 12.5t35.5 33t20 55.5t9 70t2 88t-2 88t-9 70t-20 55.5t-35.5 33t-54.5 12.5q-39 0 -64 -17.5t-37 -55
t-16 -79t-4 -107.5z" />
    <glyph glyph-name="one" unicode="1" horiz-adv-x="326" 
d="M31 653l127 47h90v-700h-110v590l-77 -29z" />
    <glyph glyph-name="two" unicode="2" horiz-adv-x="526" 
d="M43 40q0 55 33 108.5t80 97t94.5 85t80.5 87t33 87.5q0 47 -29 76t-80 29q-89 0 -115 -95l-97 28q6 27 20 54t38.5 54.5t65.5 44.5t92 17q99 0 158.5 -56.5t59.5 -147.5q0 -55 -29.5 -107t-73 -92t-87 -75.5t-76.5 -71t-38 -65.5h313v-98h-443v40z" />
    <glyph glyph-name="three" unicode="3" horiz-adv-x="533" 
d="M465 600l-164 -183q78 0 134.5 -52.5t56.5 -153.5q0 -97 -65.5 -160.5t-164.5 -63.5q-98 0 -153 48.5t-72 114.5l95 31q29 -92 128 -92q52 0 85.5 33.5t33.5 85.5q0 54 -32.5 84.5t-93.5 30.5h-79v87l166 192h-278v98h403v-100z" />
    <glyph glyph-name="four" unicode="4" horiz-adv-x="574" 
d="M29 251l303 449h125v-434h87v-96h-87v-170h-109v170h-319v81zM348 266v303l-202 -303h202z" />
    <glyph glyph-name="five" unicode="5" horiz-adv-x="532" 
d="M262 89q55 0 88 38t33 96q0 56 -34 94.5t-95 38.5q-55 0 -100 -41l-92 15l15 370h376v-99h-277l-8 -179q47 29 108 29q94 0 156.5 -61.5t62.5 -159.5q0 -105 -64 -174t-164 -69q-97 0 -154.5 49t-75.5 114l96 31q27 -92 129 -92z" />
    <glyph glyph-name="six" unicode="6" horiz-adv-x="554" 
d="M317 713q89 0 161 -48l-46 -88q-47 32 -109 32q-61 0 -99 -35.5t-50 -79.5t-12 -96q49 62 140 62q95 0 151 -62t56 -167q0 -111 -62 -177.5t-166 -66.5q-67 0 -114.5 23.5t-73.5 68t-37 98t-11 123.5q0 413 272 413zM283 91q54 0 85 36t31 101q0 59 -30.5 95.5
t-87.5 36.5q-78 0 -124 -76q0 -43 4 -73.5t16.5 -60t39 -44.5t66.5 -15z" />
    <glyph glyph-name="seven" unicode="7" horiz-adv-x="497" 
d="M473 700v-81l-238 -619h-119l235 601h-324v99h446z" />
    <glyph glyph-name="eight" unicode="8" horiz-adv-x="557" 
d="M278 -13q-107 0 -172 58.5t-65 155.5q0 65 33 108.5t74 63.5q-33 19 -59.5 57.5t-26.5 89.5q0 86 60 139.5t156 53.5t156.5 -54t60.5 -139q0 -51 -27 -89.5t-60 -57.5q42 -20 75 -63.5t33 -108.5q0 -96 -66 -155t-172 -59zM278 416q46 0 76 28.5t30 70.5t-28 69.5
t-78 27.5t-77.5 -27.5t-27.5 -69.5t29.5 -70.5t75.5 -28.5zM278 318q-55 0 -89.5 -31.5t-34.5 -84.5q0 -48 33 -81t91 -33t91 33t33 81q0 53 -34.5 84.5t-89.5 31.5z" />
    <glyph glyph-name="nine" unicode="9" horiz-adv-x="554" 
d="M237 -13q-89 0 -161 48l46 88q47 -32 109 -32q61 0 99 35.5t50 79.5t12 96q-49 -62 -140 -62q-95 0 -151 62t-56 167q0 111 62 177.5t166 66.5q67 0 114.5 -23.5t73.5 -68t37 -98t11 -123.5q0 -413 -272 -413zM271 609q-54 0 -85 -36t-31 -101q0 -59 30.5 -95.5
t87.5 -36.5q78 0 124 76q0 43 -4 73.5t-16.5 60t-39 44.5t-66.5 15z" />
    <glyph glyph-name="colon" unicode=":" horiz-adv-x="228" 
d="M43 429q0 29 21 50t50 21t50 -21t21 -50t-21 -50t-50 -21t-50 21t-21 50zM43 57q0 29 21 50t50 21t50 -21t21 -50t-21 -49.5t-50 -20.5t-50 20.5t-21 49.5z" />
    <glyph glyph-name="semicolon" unicode=";" horiz-adv-x="228" 
d="M43 429q0 29 21 50t50 21t50 -21t21 -50t-21 -50t-50 -21t-50 21t-21 50zM43 57q0 29 20.5 50t49.5 21q31 0 52 -20.5t21 -55.5q0 -114 -94 -189l-46 48q50 35 56 77q-27 5 -43 25t-16 44z" />
    <glyph glyph-name="less" unicode="&#x3c;" horiz-adv-x="501" 
d="M44 353l412 187v-97l-305 -130l305 -132v-97l-412 187v82z" />
    <glyph glyph-name="equal" unicode="=" horiz-adv-x="550" 
d="M38 440h474v-88h-474v88zM38 263h474v-89h-474v89z" />
    <glyph glyph-name="greater" unicode="&#x3e;" horiz-adv-x="501" 
d="M457 271l-413 -187v97l306 132l-306 130v97l413 -187v-82z" />
    <glyph glyph-name="question" unicode="?" horiz-adv-x="475" 
d="M161 236q0 32 12.5 60t31 47.5t40 41t40 39t31 42t12.5 51.5q0 43 -27 70.5t-75 27.5q-71 0 -106 -75l-86 39q18 52 66.5 93t130.5 41q94 0 151.5 -53.5t57.5 -136.5q0 -43 -18 -80t-43 -62t-50.5 -47.5t-43.5 -49t-18 -54.5v-42h-106v48zM144 57q0 29 21 50t50 21
t50 -21t21 -50t-21 -49.5t-50 -20.5t-50 20.5t-21 49.5z" />
    <glyph glyph-name="at" unicode="@" horiz-adv-x="898" 
d="M250 259q0 86 53 141.5t133 55.5q75 0 116 -49v43h85v-246q0 -67 56 -67q37 0 59 42t22 122q0 137 -86 218.5t-234 81.5q-146 0 -237 -97t-91 -240q0 -147 91 -240t238 -93q105 0 188 48l38 -61q-89 -63 -226 -63q-179 0 -297.5 115t-118.5 292q0 179 118.5 296.5
t298.5 117.5q183 0 292.5 -106t109.5 -266q0 -116 -46 -179t-126 -63q-43 0 -72 20t-41 52q-8 -14 -22 -28t-45 -29t-67 -15q-82 0 -135.5 55t-53.5 142zM342 259q0 -52 30 -85t76 -33t76.5 32t30.5 88q0 50 -29.5 82.5t-77.5 32.5q-46 0 -76 -32t-30 -85z" />
    <glyph glyph-name="A" unicode="A" horiz-adv-x="646" 
d="M195 204l-73 -204h-112l255 700h115l255 -700h-112l-72 204h-256zM323 580l-97 -283h194z" />
    <glyph glyph-name="B" unicode="B" horiz-adv-x="558" 
d="M73 700h206q101 0 161 -50t60 -132q0 -49 -23.5 -89t-64.5 -62q52 -22 81.5 -63.5t29.5 -97.5q0 -92 -65.5 -149t-161.5 -57h-223v700zM283 407q45 0 74 27.5t29 72.5q0 44 -28 70t-76 26h-98v-196h99zM285 96q55 0 89 28.5t34 81.5q0 54 -34 82t-89 28h-101v-220h101z
" />
    <glyph glyph-name="C" unicode="C" horiz-adv-x="647" 
d="M615 60q-95 -73 -220 -73q-158 0 -259 103.5t-101 259.5q0 155 102.5 259t256.5 104q122 0 212 -68l-33 -98q-81 62 -176 62q-108 0 -177.5 -74.5t-69.5 -184.5q0 -111 68.5 -185t179.5 -74q96 0 184 66z" />
    <glyph glyph-name="D" unicode="D" horiz-adv-x="646" 
d="M73 700h165q175 0 274 -93t99 -257q0 -169 -99 -259.5t-274 -90.5h-165v700zM249 97q115 0 181 65t66 188q0 119 -66.5 185.5t-180.5 66.5h-65v-505h65z" />
    <glyph glyph-name="E" unicode="E" horiz-adv-x="478" 
d="M73 700h346v-100h-235v-195h204v-99h-204v-206h245v-100h-356v700z" />
    <glyph glyph-name="F" unicode="F" horiz-adv-x="469" 
d="M73 700h345v-100h-234v-203h205v-99h-205v-298h-111v700z" />
    <glyph glyph-name="G" unicode="G" horiz-adv-x="742" 
d="M393 713q169 0 267 -109l-70 -73q-79 79 -193 79q-110 0 -178 -73.5t-68 -185.5q0 -116 69.5 -188.5t176.5 -72.5q70 0 117.5 20.5t68.5 42.5v118h-144v95h249v-267q-120 -112 -297 -112q-152 0 -254 101.5t-102 261.5q0 154 101.5 258.5t256.5 104.5z" />
    <glyph glyph-name="H" unicode="H" horiz-adv-x="700" 
d="M73 700h111v-295h332v295h111v-700h-111v304h-332v-304h-111v700z" />
    <glyph glyph-name="I" unicode="I" horiz-adv-x="258" 
d="M73 700h111v-700h-111v700z" />
    <glyph glyph-name="J" unicode="J" horiz-adv-x="360" 
d="M34 103q33 -8 62 -8q79 0 79 89v516h111v-534q0 -86 -47.5 -129t-129.5 -43q-52 0 -88 10z" />
    <glyph glyph-name="K" unicode="K" horiz-adv-x="590" 
d="M73 700h111v-323l258 323h125l-273 -338l283 -362h-128l-265 346v-346h-111v700z" />
    <glyph glyph-name="L" unicode="L" horiz-adv-x="452" 
d="M73 700h111v-600h245v-100h-356v700z" />
    <glyph glyph-name="M" unicode="M" horiz-adv-x="882" 
d="M441 189l226 511h143v-700h-107v542l-209 -480h-106l-209 480v-542h-107v700h143z" />
    <glyph glyph-name="N" unicode="N" horiz-adv-x="709" 
d="M72 700h112l343 -520v520h109v-700h-110l-344 517v-517h-110v700z" />
    <glyph glyph-name="O" unicode="O" horiz-adv-x="790" 
d="M34 350q0 155 102.5 259t258.5 104t258 -104.5t102 -258.5q0 -155 -102 -259t-259 -104q-156 0 -258 103.5t-102 259.5zM150 350q0 -112 69.5 -185.5t175.5 -73.5q105 0 175 73.5t70 185.5q0 111 -70 185t-175 74q-106 0 -175.5 -74t-69.5 -185z" />
    <glyph glyph-name="P" unicode="P" horiz-adv-x="525" 
d="M73 700h203q99 0 161.5 -58t62.5 -152q0 -93 -63.5 -153t-159.5 -60h-93v-277h-111v700zM263 374q55 0 89 32t34 84q0 51 -34 82t-88 31h-80v-229h79z" />
    <glyph glyph-name="Q" unicode="Q" horiz-adv-x="790" 
d="M34 350q0 155 102.5 259t258.5 104t258 -104.5t102 -258.5q0 -127 -74 -224l72 -68l-71 -73l-73 69q-90 -67 -215 -67q-156 0 -258 103.5t-102 259.5zM150 350q0 -112 69.5 -185.5t175.5 -73.5q74 0 130 39l-71 68l70 73l70 -67q46 64 46 146q0 111 -70 185t-175 74
q-106 0 -175.5 -74t-69.5 -185z" />
    <glyph glyph-name="R" unicode="R" horiz-adv-x="566" 
d="M73 700h188q110 0 172 -57.5t62 -148.5q0 -61 -30.5 -109.5t-83.5 -70.5l170 -314h-123l-147 289h-97v-289h-111v700zM259 384q54 0 87.5 29t33.5 81q0 50 -31 79.5t-90 29.5h-75v-219h75z" />
    <glyph glyph-name="S" unicode="S" horiz-adv-x="514" 
d="M122 189q38 -99 137 -99q48 0 76.5 25t28.5 69q0 40 -32.5 69.5t-78.5 50.5t-92.5 45t-79 68.5t-32.5 106.5q0 83 57.5 136t152.5 53q47 0 85.5 -15t62.5 -39t37.5 -45.5t21.5 -43.5l-92 -41q-39 82 -117 82q-45 0 -71 -24.5t-26 -61.5q0 -32 23.5 -57.5t58.5 -41.5
t76.5 -37t76.5 -43.5t58.5 -62t23.5 -91.5q0 -90 -60.5 -147.5t-162.5 -57.5q-51 0 -92 15.5t-67.5 41t-42 50t-24.5 51.5z" />
    <glyph glyph-name="T" unicode="T" horiz-adv-x="511" 
d="M196 600h-176v100h463v-100h-176v-600h-111v600z" />
    <glyph glyph-name="U" unicode="U" horiz-adv-x="681" 
d="M341 -13q-129 0 -200 73t-71 197v443h111v-442q0 -78 41.5 -123t118.5 -45q76 0 118 45.5t42 123.5v441h110v-442q0 -121 -72.5 -196t-197.5 -75z" />
    <glyph glyph-name="V" unicode="V" horiz-adv-x="659" 
d="M269 0l-261 700h122l199 -569l200 569h122l-262 -700h-120z" />
    <glyph glyph-name="W" unicode="W" horiz-adv-x="960" 
d="M480 534l-151 -534h-125l-194 700h119l143 -562l155 562h105l156 -562l143 562h118l-193 -700h-125z" />
    <glyph glyph-name="X" unicode="X" horiz-adv-x="621" 
d="M243 359l-221 341h132l155 -255l156 255h131l-221 -341l234 -359h-125l-176 276l-174 -276h-124z" />
    <glyph glyph-name="Y" unicode="Y" horiz-adv-x="558" 
d="M224 324l-216 376h126l145 -273l148 273h123l-216 -376v-324h-110v324z" />
    <glyph glyph-name="Z" unicode="Z" horiz-adv-x="599" 
d="M34 76l378 525h-367v99h513v-76l-379 -525h382v-99h-527v76z" />
    <glyph glyph-name="bracketleft" unicode="[" horiz-adv-x="319" 
d="M56 782h193v-94h-85v-741h85v-94h-193v929z" />
    <glyph glyph-name="backslash" unicode="\" horiz-adv-x="439" 
d="M419 -108h-97l-302 858h97z" />
    <glyph glyph-name="bracketright" unicode="]" horiz-adv-x="316" 
d="M263 -147h-193v94h85v741h-85v94h193v-929z" />
    <glyph glyph-name="asciicircum" unicode="^" horiz-adv-x="540" 
d="M225 700h90l183 -382h-104l-124 276l-125 -276h-103z" />
    <glyph glyph-name="underscore" unicode="_" horiz-adv-x="610" 
d="M581 -29v-87h-552v87h552z" />
    <glyph glyph-name="grave" unicode="`" horiz-adv-x="486" 
d="M336 582h-93l-92 143h115z" />
    <glyph glyph-name="a" unicode="a" horiz-adv-x="518" 
d="M29 161q0 76 56 124t146 48q83 0 125 -38v49q0 45 -29.5 70.5t-81.5 25.5q-72 0 -146 -41l-42 76q93 60 199 60q208 0 208 -198v-337h-95l-9 39q-47 -52 -134 -52q-84 0 -140.5 48.5t-56.5 125.5zM138 164q0 -39 31 -64.5t80 -25.5q48 0 79 25t31 65q0 41 -30.5 65.5
t-80.5 24.5q-49 0 -79.5 -25.5t-30.5 -64.5z" />
    <glyph glyph-name="b" unicode="b" horiz-adv-x="616" 
d="M61 723h109v-271q17 27 60.5 55t108.5 28q111 0 179.5 -76.5t68.5 -198.5q0 -120 -71.5 -196.5t-183.5 -76.5q-105 0 -168 81v-68h-103v723zM166 259q0 -74 42.5 -125t112.5 -51q68 0 112 48.5t44 127.5t-43.5 129t-111.5 50t-112 -48t-44 -131z" />
    <glyph glyph-name="c" unicode="c" horiz-adv-x="501" 
d="M442 379q-59 57 -138 57q-73 0 -119 -50t-46 -125t48.5 -126t120.5 -51t136 58l31 -90q-73 -65 -173 -65q-119 0 -196 78t-77 196q0 117 78 195.5t194 78.5q100 0 174 -64z" />
    <glyph glyph-name="d" unicode="d" horiz-adv-x="616" 
d="M555 0h-103v68q-63 -81 -168 -81q-112 0 -183.5 76.5t-71.5 196.5q0 122 68.5 198.5t179.5 76.5q65 0 108.5 -28t60.5 -55v271h109v-723zM450 259q0 83 -44 131t-112 48t-111.5 -50t-43.5 -129t44 -127.5t112 -48.5q70 0 112.5 51t42.5 125z" />
    <glyph glyph-name="e" unicode="e" horiz-adv-x="562" 
d="M30 259q0 120 73 198t181 78q117 0 184 -74.5t67 -198.5q0 -18 -1 -27h-393q1 -69 46.5 -111t115.5 -42q94 0 144 73l72 -54q-25 -43 -80 -78.5t-138 -35.5q-121 0 -196 76t-75 196zM424 310q-3 63 -42 98.5t-97 35.5q-57 0 -96 -36.5t-44 -97.5h279z" />
    <glyph glyph-name="f" unicode="f" horiz-adv-x="310" 
d="M81 432h-57v90h57v23q0 93 50 135t128 42l39 -2v-93q-14 2 -26 2q-82 0 -82 -86v-21h101v-90h-101v-432h-109v432z" />
    <glyph glyph-name="g" unicode="g" horiz-adv-x="611" 
d="M129 -58q69 -40 153 -40q73 0 118.5 31t45.5 100v35q-10 -15 -25.5 -29.5t-55 -33t-86.5 -18.5q-112 0 -181 76t-69 197t70.5 198t181.5 77q64 0 107.5 -27.5t62.5 -55.5v70h103v-453q0 -138 -73.5 -199.5t-197.5 -61.5q-104 0 -189 50zM449 261q0 79 -44 128t-112 49
t-111.5 -49.5t-43.5 -127.5q0 -79 44 -128t112 -49q70 0 112.5 49.5t42.5 127.5z" />
    <glyph glyph-name="h" unicode="h" horiz-adv-x="555" 
d="M316 535q94 0 138 -63t44 -158v-314h-108v323q0 53 -29.5 83.5t-75.5 30.5q-51 0 -83 -34t-32 -88v-315h-109v723h109v-269q19 34 58 57.5t88 23.5z" />
    <glyph glyph-name="i" unicode="i" 
d="M47 651q0 29 19.5 48.5t48.5 19.5t48.5 -19.5t19.5 -48.5t-19.5 -48.5t-48.5 -19.5t-48.5 19.5t-19.5 48.5zM61 522h109v-522h-109v522z" />
    <glyph glyph-name="j" unicode="j" 
d="M47 651q0 29 19.5 48.5t48.5 19.5t48.5 -19.5t19.5 -48.5t-19.5 -48.5t-48.5 -19.5t-48.5 19.5t-19.5 48.5zM61 522h109v-534q0 -179 -182 -179l-30 2v92q14 -1 23 -1q80 0 80 90v530z" />
    <glyph glyph-name="k" unicode="k" horiz-adv-x="505" 
d="M61 723h109v-424l193 223h124l-209 -236l223 -286h-129l-202 274v-274h-109v723z" />
    <glyph glyph-name="l" unicode="l" 
d="M61 723h109v-723h-109v723z" />
    <glyph glyph-name="m" unicode="m" horiz-adv-x="855" 
d="M798 0h-108v313q0 124 -100 124q-47 0 -76.5 -33t-29.5 -92v-312h-109v323q0 53 -26.5 83.5t-73.5 30.5q-45 0 -75 -34t-30 -89v-314h-109v522h107v-68q16 33 53.5 57t87.5 24q109 0 150 -87q49 87 161 87q86 0 132 -53t46 -141v-341z" />
    <glyph glyph-name="n" unicode="n" horiz-adv-x="554" 
d="M315 535q94 0 138 -63t44 -158v-314h-108v323q0 53 -29.5 83.5t-75.5 30.5q-51 0 -82.5 -34t-31.5 -88v-315h-109v522h107v-68q19 34 58.5 57.5t88.5 23.5z" />
    <glyph glyph-name="o" unicode="o" horiz-adv-x="611" 
d="M29 260q0 118 79 196.5t197 78.5q120 0 198.5 -78t78.5 -196t-79 -196t-198 -78q-120 0 -198 77t-78 196zM139 260q0 -77 46.5 -126.5t119.5 -49.5t120.5 50t47.5 127t-47.5 127t-120.5 50t-119.5 -50.5t-46.5 -127.5z" />
    <glyph glyph-name="p" unicode="p" horiz-adv-x="617" 
d="M61 522h103v-69q12 16 27.5 31t55 33t85.5 18q112 0 183.5 -77t71.5 -196q0 -122 -68.5 -198.5t-179.5 -76.5q-64 0 -108 27.5t-61 54.5v-256h-109v709zM166 262q0 -82 44.5 -130t111.5 -48q68 0 111.5 49.5t43.5 128.5t-44 127.5t-112 48.5q-70 0 -112.5 -51t-42.5 -125
z" />
    <glyph glyph-name="q" unicode="q" horiz-adv-x="617" 
d="M555 -187h-108v256q-17 -27 -61 -54.5t-108 -27.5q-111 0 -179.5 76.5t-68.5 198.5q0 120 71.5 196.5t183.5 76.5q46 0 85 -18t55.5 -33.5t26.5 -30.5v69h103v-709zM450 262q0 75 -42 125.5t-113 50.5q-68 0 -112 -48.5t-44 -127.5q0 -78 43.5 -128t111.5 -50
q67 0 111.5 48t44.5 130z" />
    <glyph glyph-name="r" unicode="r" horiz-adv-x="337" 
d="M317 425q-147 0 -147 -200v-225h-109v522h107v-82q16 41 56 68t93 27v-110z" />
    <glyph glyph-name="s" unicode="s" horiz-adv-x="426" 
d="M92 145q47 -68 125 -68q36 0 58 17t22 48q0 27 -26 46t-63.5 32.5t-75 30.5t-63.5 51.5t-26 84.5q0 68 50.5 108t128.5 40q66 0 108.5 -29.5t61.5 -67.5l-75 -50q-36 58 -101 58q-31 0 -50.5 -15.5t-19.5 -41.5q0 -27 26.5 -45t64 -31t74.5 -29.5t63.5 -51t26.5 -85.5
q0 -72 -53.5 -116t-135.5 -44q-130 0 -188 104z" />
    <glyph glyph-name="t" unicode="t" horiz-adv-x="314" 
d="M70 631h108v-109h106v-90h-106v-243q0 -58 21 -78.5t68 -20.5l21 1v-94q-19 -4 -53 -4q-90 0 -127.5 55t-37.5 158v226h-58v90h58v109z" />
    <glyph glyph-name="u" unicode="u" horiz-adv-x="550" 
d="M239 -13q-94 0 -138 63t-44 158v314h108v-323q0 -53 29.5 -83.5t75.5 -30.5q51 0 82.5 34t31.5 88v315h109v-522h-107v68q-19 -34 -58 -57.5t-89 -23.5z" />
    <glyph glyph-name="v" unicode="v" horiz-adv-x="520" 
d="M199 0l-194 522h116l140 -404l139 404h114l-192 -522h-123z" />
    <glyph glyph-name="w" unicode="w" horiz-adv-x="822" 
d="M411 374l-118 -374h-120l-166 522h118l114 -400q1 3 120 400h104l119 -400l115 400h118l-166 -522h-121z" />
    <glyph glyph-name="x" unicode="x" horiz-adv-x="518" 
d="M259 187l-131 -187h-120l189 268l-178 254h124l116 -177l116 177h124l-178 -254l189 -268h-120z" />
    <glyph glyph-name="y" unicode="y" horiz-adv-x="524" 
d="M139 -179l74 188l-207 513h117l141 -380l139 380h114l-273 -701h-105z" />
    <glyph glyph-name="z" unicode="z" horiz-adv-x="465" 
d="M30 71l267 359h-259v92h391v-72l-266 -359h270v-91h-403v71z" />
    <glyph glyph-name="braceleft" unicode="{" horiz-adv-x="368" 
d="M105 153q0 63 -18.5 88.5t-54.5 25.5v101q38 0 55.5 25t17.5 89v107q0 193 193 193v-94q-85 0 -85 -87v-153q0 -33 -8.5 -59t-21.5 -40t-23.5 -21.5t-19.5 -10.5q23 -6 48 -38t25 -92v-153q0 -87 85 -87v-94q-193 0 -193 193v107z" />
    <glyph glyph-name="bar" unicode="|" horiz-adv-x="267" 
d="M82 804h103v-1025h-103v1025z" />
    <glyph glyph-name="braceright" unicode="}" horiz-adv-x="367" 
d="M263 46q0 -193 -193 -193v94q85 0 85 87v153q0 60 25 92t48 38q-9 3 -19.5 10.5t-23.5 21.5t-21.5 40t-8.5 59v153q0 87 -85 87v94q193 0 193 -193v-107q0 -64 17.5 -89t55.5 -25v-101q-36 0 -54.5 -25.5t-18.5 -88.5v-107z" />
    <glyph glyph-name="asciitilde" unicode="~" horiz-adv-x="541" 
d="M358 324q27 0 41 17t15 43h87q-1 -64 -36.5 -110.5t-98.5 -46.5q-46 0 -99 29.5t-85 29.5q-27 0 -41 -17t-15 -43h-86q0 70 37 114t100 44q40 0 99 -30t82 -30z" />
    <glyph glyph-name="exclamdown" unicode="&#xa1;" horiz-adv-x="275" 
d="M67 489q0 29 21 50t50 21t50 -21t21 -50t-21 -50t-50 -21t-50 21t-21 50zM89 359h97l9 -512h-114z" />
    <glyph glyph-name="cent" unicode="&#xa2;" horiz-adv-x="505" 
d="M268 66q-106 11 -172 86.5t-66 184.5q0 108 67 184.5t171 87.5v91h74v-92q77 -9 133 -60l-32 -93q-61 58 -138 58q-73 0 -119 -50t-46 -125q0 -76 48 -127t120 -51q77 0 136 59l31 -91q-58 -52 -133 -62v-66h-74v66z" />
    <glyph glyph-name="sterling" unicode="&#xa3;" horiz-adv-x="564" 
d="M45 390h55v116q0 92 57 149.5t155 57.5q82 0 130.5 -42.5t63.5 -94.5l-90 -39q-10 29 -36 51t-67 22q-49 0 -76 -29.5t-27 -80.5v-110h162v-86h-162v-206h312v-98h-485v98h63v206h-55v86z" />
    <glyph glyph-name="yen" unicode="&#xa5;" horiz-adv-x="570" 
d="M75 399h112l-173 301h126l145 -273l148 273h123l-173 -301h112v-75h-155v-81h155v-75h-155v-168h-110v168h-155v75h155v81h-155v75z" />
    <glyph glyph-name="section" unicode="&#xa7;" horiz-adv-x="494" 
d="M459 233q0 -46 -24 -81t-65 -54q75 -58 75 -141q0 -78 -54 -126.5t-145 -48.5q-87 0 -138 43t-70 94l90 39q36 -76 118 -76q42 0 65 20t23 56q0 52 -74 97l-133 80q-93 56 -93 147q0 45 24 80.5t65 53.5q-75 59 -75 142q0 77 54.5 126t144.5 49q87 0 138 -43.5t70 -94.5
l-90 -38q-36 76 -118 76q-42 0 -65 -20.5t-23 -56.5q0 -30 18.5 -52t55.5 -44l113 -67q113 -67 113 -160zM357 231q0 46 -58 78l-88 48q-33 -1 -54 -22t-21 -51q0 -43 38 -65l108 -62q33 1 54 22.5t21 51.5z" />
    <glyph glyph-name="dieresis" unicode="&#xa8;" horiz-adv-x="486" 
d="M96 653q0 24 17 41.5t42 17.5t42 -17.5t17 -41.5q0 -25 -17 -42t-42 -17t-42 17t-17 42zM271 653q0 25 16.5 42t42.5 17q25 0 42 -17.5t17 -41.5q0 -25 -17 -42t-42 -17q-26 0 -42.5 17t-16.5 42z" />
    <glyph glyph-name="copyright" unicode="&#xa9;" horiz-adv-x="797" 
d="M39 348q0 153 102.5 259t255.5 106q155 0 257.5 -105.5t102.5 -259.5t-102 -258t-257 -104t-257 104.5t-102 257.5zM117 349q0 -126 79 -209.5t202 -83.5q124 0 202.5 83t78.5 211q0 126 -78.5 209t-203.5 83q-123 0 -201.5 -83.5t-78.5 -209.5zM218 348q0 83 51 138
t133 55q94 0 148 -74l-58 -50q-37 46 -90 46q-47 0 -72.5 -31.5t-25.5 -82.5t25.5 -82.5t72.5 -31.5q53 0 90 45l58 -49q-54 -75 -148 -75q-83 0 -133.5 54.5t-50.5 137.5z" />
    <glyph glyph-name="ordfeminine" unicode="&#xaa;" horiz-adv-x="410" 
d="M39 432q0 58 42 94t110 36q57 0 92 -26v32q0 33 -21.5 51.5t-59.5 18.5q-54 0 -110 -31l-33 60q70 46 152 46q156 0 156 -151v-253h-73l-7 27q-36 -36 -99 -36q-64 0 -106.5 36t-42.5 96zM123 434q0 -29 23 -47.5t59 -18.5t58.5 18t22.5 48t-22.5 47.5t-58.5 17.5
t-59 -18.5t-23 -46.5z" />
    <glyph glyph-name="guillemotleft" unicode="&#xab;" horiz-adv-x="459" 
d="M31 293l123 186h100l-123 -186l123 -185h-100zM328 479h100l-124 -186l124 -185h-100l-124 185z" />
    <glyph glyph-name="registered" unicode="&#xae;" horiz-adv-x="452" 
d="M17 536q0 88 57.5 147t148.5 59q95 0 152.5 -58.5t57.5 -146.5q0 -87 -57 -146t-151 -59q-93 0 -150.5 58t-57.5 146zM68 536q0 -68 42.5 -113t114.5 -45q73 0 115 44t42 115t-42.5 114.5t-116.5 43.5q-71 0 -113 -44.5t-42 -114.5zM204 508v-79h-53v216h82
q36 0 55.5 -18.5t19.5 -49.5q0 -43 -33 -58l40 -90h-55l-32 79h-24zM204 600v-48h26q23 0 23 24t-23 24h-26z" />
    <glyph glyph-name="macron" unicode="&#xaf;" horiz-adv-x="448" 
d="M96 698h255v-82h-255v82z" />
    <glyph glyph-name="degree" unicode="&#xb0;" horiz-adv-x="367" 
d="M28 560q0 64 44 108.5t111 44.5t111 -44t44 -108q0 -65 -43.5 -108.5t-111.5 -43.5t-111.5 43.5t-43.5 107.5zM109 561q0 -33 20 -54.5t54 -21.5t54 21.5t20 54.5q0 32 -20 54t-54 22q-33 0 -53.5 -22t-20.5 -54z" />
    <glyph glyph-name="uni00B2" unicode="&#xb2;" horiz-adv-x="351" 
d="M42 347q0 40 28.5 76.5t62.5 58.5t62.5 49t28.5 51q0 22 -14.5 36t-39.5 14q-41 0 -63 -48l-67 25q12 39 45 69t88 30q61 0 99 -34t38 -90q0 -36 -25 -67.5t-55.5 -51t-58 -44t-31.5 -47.5h176v-71h-274v44z" />
    <glyph glyph-name="uni00B3" unicode="&#xb3;" horiz-adv-x="349" 
d="M303 642l-97 -101q47 -2 78.5 -33.5t31.5 -83.5q0 -61 -40.5 -95t-101.5 -34q-57 0 -91 29.5t-48 69.5l67 26q22 -50 69 -50q26 0 42.5 15t16.5 42q0 59 -69 59h-41v58l79 85h-146v71h250v-58z" />
    <glyph glyph-name="acute" unicode="&#xb4;" horiz-adv-x="486" 
d="M219 725h116l-93 -143h-92z" />
    <glyph glyph-name="paragraph" unicode="&#xb6;" horiz-adv-x="525" 
d="M227 326q-79 1 -133.5 55t-54.5 133t54 132.5t133 53.5h89v-745h-88v371zM377 700h88v-745h-88v745z" />
    <glyph glyph-name="periodcentered" unicode="&#xb7;" horiz-adv-x="238" 
d="M48 314q0 29 20.5 50t49.5 21t50 -21t21 -50t-21 -50t-50 -21t-49.5 21t-20.5 50z" />
    <glyph glyph-name="cedilla" unicode="&#xb8;" horiz-adv-x="448" 
d="M234 11l-8 -54q78 -14 78 -89q0 -49 -33 -73t-85 -24q-26 0 -50 7l13 61q16 -4 31 -4q50 0 50 37q0 36 -55 36l-17 -1l15 104h61z" />
    <glyph glyph-name="uni00B9" unicode="&#xb9;" horiz-adv-x="270" 
d="M44 670l82 30h69v-397h-84v314l-46 -18z" />
    <glyph glyph-name="ordmasculine" unicode="&#xba;" horiz-adv-x="474" 
d="M28 505q0 90 59.5 149t149.5 59q91 0 149.5 -58.5t58.5 -148.5q0 -89 -59.5 -147.5t-149.5 -58.5q-91 0 -149.5 58t-58.5 147zM113 505q0 -56 34.5 -93t88.5 -37t89 37.5t35 93.5q0 57 -35 94t-89 37t-88.5 -37.5t-34.5 -94.5z" />
    <glyph glyph-name="guillemotright" unicode="&#xbb;" horiz-adv-x="459" 
d="M255 293l-124 -185h-100l124 185l-124 186h100zM305 108h-100l123 185l-123 186h100l123 -186z" />
    <glyph glyph-name="onequarter" unicode="&#xbc;" horiz-adv-x="810" 
d="M544 741h96l-382 -782h-96zM214 303h-84v314l-46 -18l-21 71l82 30h69v-397zM729 149h49v-73h-49v-76h-82v76h-188v63l182 258h88v-248zM647 149v154l-106 -154h106z" />
    <glyph glyph-name="onehalf" unicode="&#xbd;" horiz-adv-x="821" 
d="M145 -41l382 782h96l-382 -782h-96zM63 670l82 30h69v-397h-84v314l-46 -18zM497 44q0 40 28.5 76.5t62.5 58.5t62.5 49t28.5 51q0 22 -14.5 36t-39.5 14q-41 0 -63 -48l-67 25q12 39 45 69t88 30q61 0 99 -34t38 -90q0 -36 -25 -67.5t-55.5 -51t-58 -44t-31.5 -47.5h176
v-71h-274v44z" />
    <glyph glyph-name="threequarters" unicode="&#xbe;" horiz-adv-x="860" 
d="M595 741h96l-382 -782h-96zM326 424q0 -61 -40.5 -95t-101.5 -34q-57 0 -91 29.5t-48 69.5l67 26q22 -50 69 -50q26 0 42.5 15t16.5 42q0 59 -69 59h-41v58l79 85h-146v71h250v-58l-97 -101q47 -2 78.5 -33.5t31.5 -83.5zM767 149h49v-73h-49v-76h-82v76h-188v63l182 258
h88v-248zM685 149v154l-106 -154h106z" />
    <glyph glyph-name="questiondown" unicode="&#xbf;" horiz-adv-x="475" 
d="M330 489q0 -29 -20.5 -50t-49.5 -21t-50 21t-21 50t21 50t50 21t49.5 -21t20.5 -50zM313 311q0 -38 -17 -70t-41.5 -55.5t-49.5 -46.5t-42 -51t-17 -59q0 -43 27 -70.5t75 -27.5q72 0 107 75l85 -39q-18 -52 -66 -92.5t-131 -40.5q-94 0 -151.5 53t-57.5 137
q0 43 18 79.5t43 61.5t50.5 47.5t43.5 49t18 54.5v43h106v-48z" />
    <glyph glyph-name="Agrave" unicode="&#xc0;" horiz-adv-x="646" 
d="M371 741h-93l-92 143h115zM195 204l-73 -204h-112l255 700h115l255 -700h-112l-72 204h-256zM323 580l-97 -283h194z" />
    <glyph glyph-name="Aacute" unicode="&#xc1;" horiz-adv-x="646" 
d="M338 884h116l-93 -143h-92zM195 204l-73 -204h-112l255 700h115l255 -700h-112l-72 204h-256zM323 580l-97 -283h194z" />
    <glyph glyph-name="Acircumflex" unicode="&#xc2;" horiz-adv-x="646" 
d="M323 821l-55 -77h-96l95 135h112l94 -135h-95zM195 204l-73 -204h-112l255 700h115l255 -700h-112l-72 204h-256zM323 580l-97 -283h194z" />
    <glyph glyph-name="Atilde" unicode="&#xc3;" horiz-adv-x="646" 
d="M390 751q-28 0 -69 20.5t-57 20.5q-33 0 -35 -41h-72q0 54 28.5 87t73.5 33q29 0 69 -20.5t55 -20.5q16 0 25.5 11t9.5 30h72q0 -55 -27.5 -87.5t-72.5 -32.5zM195 204l-73 -204h-112l255 700h115l255 -700h-112l-72 204h-256zM323 580l-97 -283h194z" />
    <glyph glyph-name="Adieresis" unicode="&#xc4;" horiz-adv-x="646" 
d="M180 812q0 24 17 41.5t42 17.5t42 -17.5t17 -41.5q0 -25 -17 -42t-42 -17t-42 17t-17 42zM355 812q0 25 16.5 42t42.5 17q25 0 42 -17.5t17 -41.5q0 -25 -17 -42t-42 -17q-26 0 -42.5 17t-16.5 42zM195 204l-73 -204h-112l255 700h115l255 -700h-112l-72 204h-256z
M323 580l-97 -283h194z" />
    <glyph glyph-name="Aring" unicode="&#xc5;" horiz-adv-x="646" 
d="M224 829q0 41 28 67t70 26q44 0 71.5 -26t27.5 -66q0 -41 -28 -67.5t-71 -26.5q-42 0 -70 26.5t-28 66.5zM283 829q0 -18 11 -29t29 -11t28.5 11t10.5 30q0 18 -11 29t-29 11q-17 0 -28 -11.5t-11 -29.5zM195 204l-73 -204h-112l255 700h115l255 -700h-112l-72 204h-256z
M323 580l-97 -283h194z" />
    <glyph glyph-name="AE" unicode="&#xc6;" horiz-adv-x="834" 
d="M369 700h407v-100h-235v-195h203v-99h-203v-206h244v-100h-355v204h-201l-100 -204h-121zM272 297h158v303h-10z" />
    <glyph glyph-name="Ccedilla" unicode="&#xc7;" horiz-adv-x="647" 
d="M615 60q-95 -73 -220 -73l-16 1l-4 -31q78 -14 78 -89q0 -49 -33 -73t-85 -24q-25 0 -50 7l13 61q16 -4 31 -4q50 0 50 37q0 36 -55 36l-17 -1l12 87q-128 24 -206 122t-78 234q0 155 102.5 259t256.5 104q122 0 212 -68l-33 -98q-81 62 -176 62q-108 0 -177.5 -74.5
t-69.5 -184.5q0 -111 68.5 -185t179.5 -74q96 0 184 66z" />
    <glyph glyph-name="Egrave" unicode="&#xc8;" horiz-adv-x="478" 
d="M316 741h-93l-92 143h115zM73 700h346v-100h-235v-195h204v-99h-204v-206h245v-100h-356v700z" />
    <glyph glyph-name="Eacute" unicode="&#xc9;" horiz-adv-x="478" 
d="M260 884h116l-93 -143h-92zM73 700h346v-100h-235v-195h204v-99h-204v-206h245v-100h-356v700z" />
    <glyph glyph-name="Ecircumflex" unicode="&#xca;" horiz-adv-x="478" 
d="M251 821l-55 -77h-96l95 135h112l94 -135h-95zM73 700h346v-100h-235v-195h204v-99h-204v-206h245v-100h-356v700z" />
    <glyph glyph-name="Edieresis" unicode="&#xcb;" horiz-adv-x="478" 
d="M110 812q0 24 17 41.5t42 17.5t42 -17.5t17 -41.5q0 -25 -17 -42t-42 -17t-42 17t-17 42zM285 812q0 25 16.5 42t42.5 17q25 0 42 -17.5t17 -41.5q0 -25 -17 -42t-42 -17q-26 0 -42.5 17t-16.5 42zM73 700h346v-100h-235v-195h204v-99h-204v-206h245v-100h-356v700z" />
    <glyph glyph-name="Igrave" unicode="&#xcc;" horiz-adv-x="258" 
d="M189 741h-93l-92 143h115zM73 700h111v-700h-111v700z" />
    <glyph glyph-name="Iacute" unicode="&#xcd;" horiz-adv-x="258" 
d="M141 884h116l-93 -143h-92zM73 700h111v-700h-111v700z" />
    <glyph glyph-name="Icircumflex" unicode="&#xce;" horiz-adv-x="258" 
d="M131 821l-55 -77h-96l95 135h112l94 -135h-95zM73 700h111v-700h-111v700z" />
    <glyph glyph-name="Idieresis" unicode="&#xcf;" horiz-adv-x="258" 
d="M-11 812q0 24 17 41.5t42 17.5t42 -17.5t17 -41.5q0 -25 -17 -42t-42 -17t-42 17t-17 42zM164 812q0 25 16.5 42t42.5 17q25 0 42 -17.5t17 -41.5q0 -25 -17 -42t-42 -17q-26 0 -42.5 17t-16.5 42zM73 700h111v-700h-111v700z" />
    <glyph glyph-name="Eth" unicode="&#xd0;" horiz-adv-x="653" 
d="M23 402h57v298h165q175 0 274 -93t99 -257q0 -169 -99 -259.5t-274 -90.5h-165v304h-57v98zM256 97q115 0 181 65t66 188q0 119 -66.5 185.5t-180.5 66.5h-65v-200h127v-98h-127v-207h65z" />
    <glyph glyph-name="Ntilde" unicode="&#xd1;" horiz-adv-x="709" 
d="M436 751q-28 0 -69 20.5t-57 20.5q-33 0 -35 -41h-72q0 54 28.5 87t73.5 33q29 0 69 -20.5t55 -20.5q16 0 25.5 11t9.5 30h72q0 -55 -27.5 -87.5t-72.5 -32.5zM72 700h112l343 -520v520h109v-700h-110l-344 517v-517h-110v700z" />
    <glyph glyph-name="Ograve" unicode="&#xd2;" horiz-adv-x="790" 
d="M449 741h-93l-92 143h115zM34 350q0 155 102.5 259t258.5 104t258 -104.5t102 -258.5q0 -155 -102 -259t-259 -104q-156 0 -258 103.5t-102 259.5zM150 350q0 -112 69.5 -185.5t175.5 -73.5q105 0 175 73.5t70 185.5q0 111 -70 185t-175 74q-106 0 -175.5 -74t-69.5 -185
z" />
    <glyph glyph-name="Oacute" unicode="&#xd3;" horiz-adv-x="790" 
d="M403 884h116l-93 -143h-92zM34 350q0 155 102.5 259t258.5 104t258 -104.5t102 -258.5q0 -155 -102 -259t-259 -104q-156 0 -258 103.5t-102 259.5zM150 350q0 -112 69.5 -185.5t175.5 -73.5q105 0 175 73.5t70 185.5q0 111 -70 185t-175 74q-106 0 -175.5 -74
t-69.5 -185z" />
    <glyph glyph-name="Ocircumflex" unicode="&#xd4;" horiz-adv-x="790" 
d="M394 821l-55 -77h-96l95 135h112l94 -135h-95zM34 350q0 155 102.5 259t258.5 104t258 -104.5t102 -258.5q0 -155 -102 -259t-259 -104q-156 0 -258 103.5t-102 259.5zM150 350q0 -112 69.5 -185.5t175.5 -73.5q105 0 175 73.5t70 185.5q0 111 -70 185t-175 74
q-106 0 -175.5 -74t-69.5 -185z" />
    <glyph glyph-name="Otilde" unicode="&#xd5;" horiz-adv-x="790" 
d="M463 751q-29 0 -69 20.5t-57 20.5q-33 0 -35 -41h-72q0 54 28.5 87t73.5 33q29 0 69 -20.5t55 -20.5q16 0 25.5 11t9.5 30h72q0 -55 -27.5 -87.5t-72.5 -32.5zM34 350q0 155 102.5 259t258.5 104t258 -104.5t102 -258.5q0 -155 -102 -259t-259 -104q-156 0 -258 103.5
t-102 259.5zM150 350q0 -112 69.5 -185.5t175.5 -73.5q105 0 175 73.5t70 185.5q0 111 -70 185t-175 74q-106 0 -175.5 -74t-69.5 -185z" />
    <glyph glyph-name="Odieresis" unicode="&#xd6;" horiz-adv-x="790" 
d="M252 812q0 24 17 41.5t42 17.5t42 -17.5t17 -41.5q0 -25 -17 -42t-42 -17t-42 17t-17 42zM427 812q0 25 16.5 42t42.5 17q25 0 42 -17.5t17 -41.5q0 -25 -17 -42t-42 -17q-26 0 -42.5 17t-16.5 42zM34 350q0 155 102.5 259t258.5 104t258 -104.5t102 -258.5
q0 -155 -102 -259t-259 -104q-156 0 -258 103.5t-102 259.5zM150 350q0 -112 69.5 -185.5t175.5 -73.5q105 0 175 73.5t70 185.5q0 111 -70 185t-175 74q-106 0 -175.5 -74t-69.5 -185z" />
    <glyph glyph-name="multiply" unicode="&#xd7;" horiz-adv-x="530" 
d="M203 309l-163 174l63 63l161 -173l163 173l61 -62l-163 -174l164 -175l-62 -62l-163 173l-161 -173l-63 63z" />
    <glyph glyph-name="Oslash" unicode="&#xd8;" horiz-adv-x="790" 
d="M35 350q0 155 102 259t258 104q105 0 192 -53l49 62l63 -50l-48 -62q105 -103 105 -260q0 -155 -102.5 -259t-258.5 -104q-109 0 -195 53l-49 -62l-63 50l49 62q-102 104 -102 260zM150 350q0 -100 59 -170l310 394q-56 35 -124 35q-106 0 -175.5 -74t-69.5 -185z
M640 350q0 100 -60 171l-312 -395q56 -35 127 -35q105 0 175 73.5t70 185.5z" />
    <glyph glyph-name="Ugrave" unicode="&#xd9;" horiz-adv-x="681" 
d="M403 741h-93l-92 143h115zM341 -13q-129 0 -200 73t-71 197v443h111v-442q0 -78 41.5 -123t118.5 -45q76 0 118 45.5t42 123.5v441h110v-442q0 -121 -72.5 -196t-197.5 -75z" />
    <glyph glyph-name="Uacute" unicode="&#xda;" horiz-adv-x="681" 
d="M355 884h116l-93 -143h-92zM341 -13q-129 0 -200 73t-71 197v443h111v-442q0 -78 41.5 -123t118.5 -45q76 0 118 45.5t42 123.5v441h110v-442q0 -121 -72.5 -196t-197.5 -75z" />
    <glyph glyph-name="Ucircumflex" unicode="&#xdb;" horiz-adv-x="681" 
d="M340 821l-55 -77h-96l95 135h112l94 -135h-95zM341 -13q-129 0 -200 73t-71 197v443h111v-442q0 -78 41.5 -123t118.5 -45q76 0 118 45.5t42 123.5v441h110v-442q0 -121 -72.5 -196t-197.5 -75z" />
    <glyph glyph-name="Udieresis" unicode="&#xdc;" horiz-adv-x="681" 
d="M195 812q0 24 17 41.5t42 17.5t42 -17.5t17 -41.5q0 -25 -17 -42t-42 -17t-42 17t-17 42zM370 812q0 25 16.5 42t42.5 17q25 0 42 -17.5t17 -41.5q0 -25 -17 -42t-42 -17q-26 0 -42.5 17t-16.5 42zM341 -13q-129 0 -200 73t-71 197v443h111v-442q0 -78 41.5 -123
t118.5 -45q76 0 118 45.5t42 123.5v441h110v-442q0 -121 -72.5 -196t-197.5 -75z" />
    <glyph glyph-name="Yacute" unicode="&#xdd;" horiz-adv-x="558" 
d="M295 884h116l-93 -143h-92zM224 324l-216 376h126l145 -273l148 273h123l-216 -376v-324h-110v324z" />
    <glyph glyph-name="Thorn" unicode="&#xde;" horiz-adv-x="536" 
d="M73 700h111v-130h109q99 0 157 -56t58 -153t-59.5 -155.5t-155.5 -58.5h-109v-147h-111v700zM280 244q53 0 83.5 31.5t30.5 84.5t-30 83t-83 30h-97v-229h96z" />
    <glyph glyph-name="germandbls" unicode="&#xdf;" horiz-adv-x="549" 
d="M257 629q-41 0 -64.5 -22.5t-23.5 -66.5v-540h-109v545q0 91 54 134t143 43q95 0 146 -42.5t51 -114.5q0 -86 -66 -121q134 -57 134 -205q0 -115 -76 -177t-201 -62v91q70 0 119 37t49 111t-49 109t-119 35v90q42 0 70.5 21.5t28.5 59.5q0 32 -23.5 53.5t-63.5 21.5z" />
    <glyph glyph-name="agrave" unicode="&#xe0;" horiz-adv-x="518" 
d="M322 582h-93l-92 143h115zM29 161q0 76 56 124t146 48q83 0 125 -38v49q0 45 -29.5 70.5t-81.5 25.5q-72 0 -146 -41l-42 76q93 60 199 60q208 0 208 -198v-337h-95l-9 39q-47 -52 -134 -52q-84 0 -140.5 48.5t-56.5 125.5zM138 164q0 -39 31 -64.5t80 -25.5q48 0 79 25
t31 65q0 41 -30.5 65.5t-80.5 24.5q-49 0 -79.5 -25.5t-30.5 -64.5z" />
    <glyph glyph-name="aacute" unicode="&#xe1;" horiz-adv-x="518" 
d="M270 725h116l-93 -143h-92zM29 161q0 76 56 124t146 48q83 0 125 -38v49q0 45 -29.5 70.5t-81.5 25.5q-72 0 -146 -41l-42 76q93 60 199 60q208 0 208 -198v-337h-95l-9 39q-47 -52 -134 -52q-84 0 -140.5 48.5t-56.5 125.5zM138 164q0 -39 31 -64.5t80 -25.5q48 0 79 25
t31 65q0 41 -30.5 65.5t-80.5 24.5q-49 0 -79.5 -25.5t-30.5 -64.5z" />
    <glyph glyph-name="acircumflex" unicode="&#xe2;" horiz-adv-x="518" 
d="M259 666l-55 -77h-96l95 135h112l94 -135h-95zM29 161q0 76 56 124t146 48q83 0 125 -38v49q0 45 -29.5 70.5t-81.5 25.5q-72 0 -146 -41l-42 76q93 60 199 60q208 0 208 -198v-337h-95l-9 39q-47 -52 -134 -52q-84 0 -140.5 48.5t-56.5 125.5zM138 164q0 -39 31 -64.5
t80 -25.5q48 0 79 25t31 65q0 41 -30.5 65.5t-80.5 24.5q-49 0 -79.5 -25.5t-30.5 -64.5z" />
    <glyph glyph-name="atilde" unicode="&#xe3;" horiz-adv-x="518" 
d="M322 594q-28 0 -68.5 20.5t-57.5 20.5q-33 0 -35 -41h-72q0 54 28.5 87t73.5 33q29 0 69 -20.5t55 -20.5q16 0 25.5 11t9.5 30h72q0 -55 -27.5 -87.5t-72.5 -32.5zM29 161q0 76 56 124t146 48q83 0 125 -38v49q0 45 -29.5 70.5t-81.5 25.5q-72 0 -146 -41l-42 76
q93 60 199 60q208 0 208 -198v-337h-95l-9 39q-47 -52 -134 -52q-84 0 -140.5 48.5t-56.5 125.5zM138 164q0 -39 31 -64.5t80 -25.5q48 0 79 25t31 65q0 41 -30.5 65.5t-80.5 24.5q-49 0 -79.5 -25.5t-30.5 -64.5z" />
    <glyph glyph-name="adieresis" unicode="&#xe4;" horiz-adv-x="518" 
d="M120 653q0 24 17 41.5t42 17.5t42 -17.5t17 -41.5q0 -25 -17 -42t-42 -17t-42 17t-17 42zM295 653q0 25 16.5 42t42.5 17q25 0 42 -17.5t17 -41.5q0 -25 -17 -42t-42 -17q-26 0 -42.5 17t-16.5 42zM29 161q0 76 56 124t146 48q83 0 125 -38v49q0 45 -29.5 70.5
t-81.5 25.5q-72 0 -146 -41l-42 76q93 60 199 60q208 0 208 -198v-337h-95l-9 39q-47 -52 -134 -52q-84 0 -140.5 48.5t-56.5 125.5zM138 164q0 -39 31 -64.5t80 -25.5q48 0 79 25t31 65q0 41 -30.5 65.5t-80.5 24.5q-49 0 -79.5 -25.5t-30.5 -64.5z" />
    <glyph glyph-name="aring" unicode="&#xe5;" horiz-adv-x="518" 
d="M164 664q0 41 28 67t70 26q44 0 71.5 -26t27.5 -66q0 -41 -28 -67.5t-71 -26.5q-42 0 -70 26.5t-28 66.5zM223 664q0 -18 11 -29t29 -11t28.5 11t10.5 30q0 18 -11 29t-29 11q-17 0 -28 -11.5t-11 -29.5zM29 161q0 76 56 124t146 48q83 0 125 -38v49q0 45 -29.5 70.5
t-81.5 25.5q-72 0 -146 -41l-42 76q93 60 199 60q208 0 208 -198v-337h-95l-9 39q-47 -52 -134 -52q-84 0 -140.5 48.5t-56.5 125.5zM138 164q0 -39 31 -64.5t80 -25.5q48 0 79 25t31 65q0 41 -30.5 65.5t-80.5 24.5q-49 0 -79.5 -25.5t-30.5 -64.5z" />
    <glyph glyph-name="ae" unicode="&#xe6;" horiz-adv-x="885" 
d="M464 235q1 -69 46 -111t115 -42q95 0 145 73l71 -54q-24 -43 -79 -78.5t-138 -35.5q-145 0 -213 99q-52 -99 -185 -99q-84 0 -140.5 48.5t-56.5 125.5q0 76 56 124t146 48q83 0 125 -38v49q0 45 -29.5 70.5t-81.5 25.5q-72 0 -146 -41l-42 76q93 60 199 60q127 0 171 -84
q68 84 179 84q117 0 184 -74.5t67 -198.5q0 -18 -1 -27h-392zM746 310q-3 63 -42 98.5t-97 35.5q-56 0 -95 -36.5t-44 -97.5h278zM138 164q0 -39 31 -64.5t80 -25.5q48 0 78 25t30 65q0 41 -29.5 65.5t-79.5 24.5q-49 0 -79.5 -25.5t-30.5 -64.5z" />
    <glyph glyph-name="ccedilla" unicode="&#xe7;" horiz-adv-x="501" 
d="M442 379q-59 57 -138 57q-73 0 -119 -50t-46 -125t48.5 -126t120.5 -51t136 58l31 -90q-73 -65 -174 -65l-4 -30q78 -14 78 -89q0 -49 -33 -73t-85 -24q-25 0 -50 7l13 61q16 -4 31 -4q50 0 50 37q0 36 -55 36l-17 -1l12 86q-95 19 -153.5 92.5t-58.5 175.5
q0 117 78 195.5t194 78.5q100 0 174 -64z" />
    <glyph glyph-name="egrave" unicode="&#xe8;" horiz-adv-x="562" 
d="M347 582h-93l-92 143h115zM30 259q0 120 73 198t181 78q117 0 184 -74.5t67 -198.5q0 -18 -1 -27h-393q1 -69 46.5 -111t115.5 -42q94 0 144 73l72 -54q-25 -43 -80 -78.5t-138 -35.5q-121 0 -196 76t-75 196zM424 310q-3 63 -42 98.5t-97 35.5q-57 0 -96 -36.5
t-44 -97.5h279z" />
    <glyph glyph-name="eacute" unicode="&#xe9;" horiz-adv-x="562" 
d="M293 725h116l-93 -143h-92zM30 259q0 120 73 198t181 78q117 0 184 -74.5t67 -198.5q0 -18 -1 -27h-393q1 -69 46.5 -111t115.5 -42q94 0 144 73l72 -54q-25 -43 -80 -78.5t-138 -35.5q-121 0 -196 76t-75 196zM424 310q-3 63 -42 98.5t-97 35.5q-57 0 -96 -36.5
t-44 -97.5h279z" />
    <glyph glyph-name="ecircumflex" unicode="&#xea;" horiz-adv-x="562" 
d="M287 666l-55 -77h-96l95 135h112l94 -135h-95zM30 259q0 120 73 198t181 78q117 0 184 -74.5t67 -198.5q0 -18 -1 -27h-393q1 -69 46.5 -111t115.5 -42q94 0 144 73l72 -54q-25 -43 -80 -78.5t-138 -35.5q-121 0 -196 76t-75 196zM424 310q-3 63 -42 98.5t-97 35.5
q-57 0 -96 -36.5t-44 -97.5h279z" />
    <glyph glyph-name="edieresis" unicode="&#xeb;" horiz-adv-x="562" 
d="M144 653q0 24 17 41.5t42 17.5t42 -17.5t17 -41.5q0 -25 -17 -42t-42 -17t-42 17t-17 42zM319 653q0 25 16.5 42t42.5 17q25 0 42 -17.5t17 -41.5q0 -25 -17 -42t-42 -17q-26 0 -42.5 17t-16.5 42zM30 259q0 120 73 198t181 78q117 0 184 -74.5t67 -198.5q0 -18 -1 -27
h-393q1 -69 46.5 -111t115.5 -42q94 0 144 73l72 -54q-25 -43 -80 -78.5t-138 -35.5q-121 0 -196 76t-75 196zM424 310q-3 63 -42 98.5t-97 35.5q-57 0 -96 -36.5t-44 -97.5h279z" />
    <glyph glyph-name="igrave" unicode="&#xec;" 
d="M175 582h-93l-92 143h115zM61 522h109v-522h-109v522z" />
    <glyph glyph-name="iacute" unicode="&#xed;" 
d="M124 725h116l-93 -143h-92zM61 522h109v-522h-109v522z" />
    <glyph glyph-name="icircumflex" unicode="&#xee;" 
d="M118 666l-55 -77h-96l95 135h112l94 -135h-95zM61 522h109v-522h-109v522z" />
    <glyph glyph-name="idieresis" unicode="&#xef;" 
d="M-29 653q0 24 17 41.5t42 17.5t42 -17.5t17 -41.5q0 -25 -17 -42t-42 -17t-42 17t-17 42zM146 653q0 25 16.5 42t42.5 17q25 0 42 -17.5t17 -41.5q0 -25 -17 -42t-42 -17q-26 0 -42.5 17t-16.5 42zM61 522h109v-522h-109v522z" />
    <glyph glyph-name="eth" unicode="&#xf0;" horiz-adv-x="590" 
d="M30 249q0 111 72.5 181t184.5 70q46 0 76 -15q-33 51 -83 85l-160 -60l-11 73l104 40q-43 31 -97 60l65 54q66 -28 138 -77l128 49l11 -74l-76 -29q174 -147 174 -334q0 -122 -69 -203.5t-197 -81.5q-115 0 -187.5 75.5t-72.5 186.5zM140 249q0 -70 41 -118t109 -48
q75 0 115.5 49.5t40.5 124.5q0 65 -42 109.5t-108 44.5q-73 0 -114.5 -46.5t-41.5 -115.5z" />
    <glyph glyph-name="ntilde" unicode="&#xf1;" horiz-adv-x="554" 
d="M348 594q-28 0 -69 20.5t-57 20.5q-33 0 -35 -41h-72q0 54 28.5 87t73.5 33q29 0 69 -20.5t55 -20.5q16 0 25.5 11t9.5 30h72q0 -55 -27.5 -87.5t-72.5 -32.5zM315 535q94 0 138 -63t44 -158v-314h-108v323q0 53 -29.5 83.5t-75.5 30.5q-51 0 -82.5 -34t-31.5 -88v-315
h-109v522h107v-68q19 34 58.5 57.5t88.5 23.5z" />
    <glyph glyph-name="ograve" unicode="&#xf2;" horiz-adv-x="611" 
d="M357 582h-93l-92 143h115zM29 260q0 118 79 196.5t197 78.5q120 0 198.5 -78t78.5 -196t-79 -196t-198 -78q-120 0 -198 77t-78 196zM139 260q0 -77 46.5 -126.5t119.5 -49.5t120.5 50t47.5 127t-47.5 127t-120.5 50t-119.5 -50.5t-46.5 -127.5z" />
    <glyph glyph-name="oacute" unicode="&#xf3;" horiz-adv-x="611" 
d="M313 725h116l-93 -143h-92zM29 260q0 118 79 196.5t197 78.5q120 0 198.5 -78t78.5 -196t-79 -196t-198 -78q-120 0 -198 77t-78 196zM139 260q0 -77 46.5 -126.5t119.5 -49.5t120.5 50t47.5 127t-47.5 127t-120.5 50t-119.5 -50.5t-46.5 -127.5z" />
    <glyph glyph-name="ocircumflex" unicode="&#xf4;" horiz-adv-x="611" 
d="M309 666l-55 -77h-96l95 135h112l94 -135h-95zM29 260q0 118 79 196.5t197 78.5q120 0 198.5 -78t78.5 -196t-79 -196t-198 -78q-120 0 -198 77t-78 196zM139 260q0 -77 46.5 -126.5t119.5 -49.5t120.5 50t47.5 127t-47.5 127t-120.5 50t-119.5 -50.5t-46.5 -127.5z" />
    <glyph glyph-name="otilde" unicode="&#xf5;" horiz-adv-x="611" 
d="M375 594q-29 0 -69 20.5t-57 20.5q-33 0 -35 -41h-72q0 54 28.5 87t73.5 33q29 0 69 -20.5t55 -20.5q16 0 25.5 11t9.5 30h72q0 -55 -27.5 -87.5t-72.5 -32.5zM29 260q0 118 79 196.5t197 78.5q120 0 198.5 -78t78.5 -196t-79 -196t-198 -78q-120 0 -198 77t-78 196z
M139 260q0 -77 46.5 -126.5t119.5 -49.5t120.5 50t47.5 127t-47.5 127t-120.5 50t-119.5 -50.5t-46.5 -127.5z" />
    <glyph glyph-name="odieresis" unicode="&#xf6;" horiz-adv-x="611" 
d="M165 653q0 24 17 41.5t42 17.5t42 -17.5t17 -41.5q0 -25 -17 -42t-42 -17t-42 17t-17 42zM340 653q0 25 16.5 42t42.5 17q25 0 42 -17.5t17 -41.5q0 -25 -17 -42t-42 -17q-26 0 -42.5 17t-16.5 42zM29 260q0 118 79 196.5t197 78.5q120 0 198.5 -78t78.5 -196t-79 -196
t-198 -78q-120 0 -198 77t-78 196zM139 260q0 -77 46.5 -126.5t119.5 -49.5t120.5 50t47.5 127t-47.5 127t-120.5 50t-119.5 -50.5t-46.5 -127.5z" />
    <glyph glyph-name="divide" unicode="&#xf7;" horiz-adv-x="551" 
d="M214 493q0 26 18 44t43 18t43 -18t18 -44q0 -25 -18 -42.5t-43 -17.5t-43 17.5t-18 42.5zM39 356h473v-89h-473v89zM214 129q0 25 18 43t43 18t43 -18t18 -43t-18 -43t-43 -18t-43 18t-18 43z" />
    <glyph glyph-name="oslash" unicode="&#xf8;" horiz-adv-x="612" 
d="M29 260q0 118 79 196.5t197 78.5q79 0 144 -38l38 48l56 -44l-37 -47q76 -78 76 -193q0 -118 -79 -196t-198 -78q-77 0 -139 34l-39 -49l-55 44l37 46q-80 78 -80 198zM139 260q0 -67 37 -112l209 268q-36 22 -80 22q-73 0 -119.5 -50.5t-46.5 -127.5zM473 261
q0 61 -35 107l-208 -266q32 -18 75 -18q73 0 120.5 50t47.5 127z" />
    <glyph glyph-name="ugrave" unicode="&#xf9;" horiz-adv-x="550" 
d="M342 582h-93l-92 143h115zM239 -13q-94 0 -138 63t-44 158v314h108v-323q0 -53 29.5 -83.5t75.5 -30.5q51 0 82.5 34t31.5 88v315h109v-522h-107v68q-19 -34 -58 -57.5t-89 -23.5z" />
    <glyph glyph-name="uacute" unicode="&#xfa;" horiz-adv-x="550" 
d="M285 725h116l-93 -143h-92zM239 -13q-94 0 -138 63t-44 158v314h108v-323q0 -53 29.5 -83.5t75.5 -30.5q51 0 82.5 34t31.5 88v315h109v-522h-107v68q-19 -34 -58 -57.5t-89 -23.5z" />
    <glyph glyph-name="ucircumflex" unicode="&#xfb;" horiz-adv-x="550" 
d="M277 666l-55 -77h-96l95 135h112l94 -135h-95zM239 -13q-94 0 -138 63t-44 158v314h108v-323q0 -53 29.5 -83.5t75.5 -30.5q51 0 82.5 34t31.5 88v315h109v-522h-107v68q-19 -34 -58 -57.5t-89 -23.5z" />
    <glyph glyph-name="udieresis" unicode="&#xfc;" horiz-adv-x="550" 
d="M136 653q0 24 17 41.5t42 17.5t42 -17.5t17 -41.5q0 -25 -17 -42t-42 -17t-42 17t-17 42zM311 653q0 25 16.5 42t42.5 17q25 0 42 -17.5t17 -41.5q0 -25 -17 -42t-42 -17q-26 0 -42.5 17t-16.5 42zM239 -13q-94 0 -138 63t-44 158v314h108v-323q0 -53 29.5 -83.5
t75.5 -30.5q51 0 82.5 34t31.5 88v315h109v-522h-107v68q-19 -34 -58 -57.5t-89 -23.5z" />
    <glyph glyph-name="yacute" unicode="&#xfd;" horiz-adv-x="524" 
d="M276 725h116l-93 -143h-92zM139 -179l74 188l-207 513h117l141 -380l139 380h114l-273 -701h-105z" />
    <glyph glyph-name="thorn" unicode="&#xfe;" horiz-adv-x="617" 
d="M61 723h109v-265q65 77 162 77q112 0 183.5 -77t71.5 -196q0 -122 -68.5 -198.5t-179.5 -76.5q-64 0 -108 27.5t-61 54.5v-256h-109v910zM166 262q0 -82 44.5 -130t111.5 -48q68 0 111.5 49.5t43.5 128.5t-44 127.5t-112 48.5q-70 0 -112.5 -51t-42.5 -125z" />
    <glyph glyph-name="ydieresis" unicode="&#xff;" horiz-adv-x="524" 
d="M121 653q0 24 17 41.5t42 17.5t42 -17.5t17 -41.5q0 -25 -17 -42t-42 -17t-42 17t-17 42zM296 653q0 25 16.5 42t42.5 17q25 0 42 -17.5t17 -41.5q0 -25 -17 -42t-42 -17q-26 0 -42.5 17t-16.5 42zM139 -179l74 188l-207 513h117l141 -380l139 380h114l-273 -701h-105z
" />
    <glyph glyph-name="Amacron" unicode="&#x100;" horiz-adv-x="646" 
d="M195 840h255v-82h-255v82zM195 204l-73 -204h-112l255 700h115l255 -700h-112l-72 204h-256zM323 580l-97 -283h194z" />
    <glyph glyph-name="amacron" unicode="&#x101;" horiz-adv-x="518" 
d="M135 698h255v-82h-255v82zM29 161q0 76 56 124t146 48q83 0 125 -38v49q0 45 -29.5 70.5t-81.5 25.5q-72 0 -146 -41l-42 76q93 60 199 60q208 0 208 -198v-337h-95l-9 39q-47 -52 -134 -52q-84 0 -140.5 48.5t-56.5 125.5zM138 164q0 -39 31 -64.5t80 -25.5q48 0 79 25
t31 65q0 41 -30.5 65.5t-80.5 24.5q-49 0 -79.5 -25.5t-30.5 -64.5z" />
    <glyph glyph-name="Abreve" unicode="&#x102;" horiz-adv-x="646" 
d="M322 744q-66 0 -102.5 37.5t-36.5 97.5h81q0 -67 58 -67q59 0 59 67h81q0 -60 -37 -97.5t-103 -37.5zM195 204l-73 -204h-112l255 700h115l255 -700h-112l-72 204h-256zM323 580l-97 -283h194z" />
    <glyph glyph-name="abreve" unicode="&#x103;" horiz-adv-x="518" 
d="M258 584q-66 0 -102.5 37.5t-36.5 97.5h81q0 -67 58 -67q59 0 59 67h81q0 -60 -37 -97.5t-103 -37.5zM29 161q0 76 56 124t146 48q83 0 125 -38v49q0 45 -29.5 70.5t-81.5 25.5q-72 0 -146 -41l-42 76q93 60 199 60q208 0 208 -198v-337h-95l-9 39q-47 -52 -134 -52
q-84 0 -140.5 48.5t-56.5 125.5zM138 164q0 -39 31 -64.5t80 -25.5q48 0 79 25t31 65q0 41 -30.5 65.5t-80.5 24.5q-49 0 -79.5 -25.5t-30.5 -64.5z" />
    <glyph glyph-name="Aogonek" unicode="&#x104;" horiz-adv-x="646" 
d="M479 -105q0 36 24 64t52 41h-32l-72 204h-256l-73 -204h-112l255 700h115l255 -700q-11 -4 -23.5 -12t-26 -25.5t-13.5 -36.5t14 -30t36 -11v-85q-12 -2 -25 -2q-48 0 -83 24.5t-35 72.5zM323 580l-97 -283h194z" />
    <glyph glyph-name="aogonek" unicode="&#x105;" horiz-adv-x="518" 
d="M308 -105q0 36 24 64t52 41h-15l-9 39q-47 -52 -134 -52q-84 0 -140.5 48.5t-56.5 125.5q0 76 56 124t146 48q83 0 125 -38v49q0 45 -29.5 70.5t-81.5 25.5q-72 0 -146 -41l-42 76q93 60 199 60q208 0 208 -198v-337q-11 -4 -23.5 -12t-26 -25.5t-13.5 -36.5t14 -30
t36 -11v-85q-12 -2 -25 -2q-48 0 -83 24.5t-35 72.5zM138 164q0 -39 31 -64.5t80 -25.5q48 0 79 25t31 65q0 41 -30.5 65.5t-80.5 24.5q-49 0 -79.5 -25.5t-30.5 -64.5z" />
    <glyph glyph-name="Cacute" unicode="&#x106;" horiz-adv-x="647" 
d="M383 884h116l-93 -143h-92zM615 60q-95 -73 -220 -73q-158 0 -259 103.5t-101 259.5q0 155 102.5 259t256.5 104q122 0 212 -68l-33 -98q-81 62 -176 62q-108 0 -177.5 -74.5t-69.5 -184.5q0 -111 68.5 -185t179.5 -74q96 0 184 66z" />
    <glyph glyph-name="cacute" unicode="&#x107;" horiz-adv-x="501" 
d="M299 725h116l-93 -143h-92zM442 379q-59 57 -138 57q-73 0 -119 -50t-46 -125t48.5 -126t120.5 -51t136 58l31 -90q-73 -65 -173 -65q-119 0 -196 78t-77 196q0 117 78 195.5t194 78.5q100 0 174 -64z" />
    <glyph glyph-name="Ccircumflex" unicode="&#x108;" horiz-adv-x="647" 
d="M393 821l-55 -77h-96l95 135h112l94 -135h-95zM615 60q-95 -73 -220 -73q-158 0 -259 103.5t-101 259.5q0 155 102.5 259t256.5 104q122 0 212 -68l-33 -98q-81 62 -176 62q-108 0 -177.5 -74.5t-69.5 -184.5q0 -111 68.5 -185t179.5 -74q96 0 184 66z" />
    <glyph glyph-name="ccircumflex" unicode="&#x109;" horiz-adv-x="501" 
d="M299 666l-55 -77h-96l95 135h112l94 -135h-95zM442 379q-59 57 -138 57q-73 0 -119 -50t-46 -125t48.5 -126t120.5 -51t136 58l31 -90q-73 -65 -173 -65q-119 0 -196 78t-77 196q0 117 78 195.5t194 78.5q100 0 174 -64z" />
    <glyph glyph-name="Cdotaccent" unicode="&#x10a;" horiz-adv-x="647" 
d="M327 809q0 29 19.5 48.5t48.5 19.5t48.5 -19.5t19.5 -48.5t-19.5 -48.5t-48.5 -19.5t-48.5 19.5t-19.5 48.5zM615 60q-95 -73 -220 -73q-158 0 -259 103.5t-101 259.5q0 155 102.5 259t256.5 104q122 0 212 -68l-33 -98q-81 62 -176 62q-108 0 -177.5 -74.5t-69.5 -184.5
q0 -111 68.5 -185t179.5 -74q96 0 184 66z" />
    <glyph glyph-name="cdotaccent" unicode="&#x10b;" horiz-adv-x="501" 
d="M233 651q0 29 19.5 48.5t48.5 19.5t48.5 -19.5t19.5 -48.5t-19.5 -48.5t-48.5 -19.5t-48.5 19.5t-19.5 48.5zM441 379q-59 57 -138 57q-73 0 -119 -50t-46 -125t48.5 -126t120.5 -51t136 58l31 -90q-73 -65 -173 -65q-119 0 -196 78t-77 196q0 117 78 195.5t194 78.5
q100 0 174 -64z" />
    <glyph glyph-name="Ccaron" unicode="&#x10c;" horiz-adv-x="647" 
d="M447 879h95l-94 -135h-112l-95 135h96l55 -76zM615 60q-95 -73 -220 -73q-158 0 -259 103.5t-101 259.5q0 155 102.5 259t256.5 104q122 0 212 -68l-33 -98q-81 62 -176 62q-108 0 -177.5 -74.5t-69.5 -184.5q0 -111 68.5 -185t179.5 -74q96 0 184 66z" />
    <glyph glyph-name="ccaron" unicode="&#x10d;" horiz-adv-x="501" 
d="M350 724h95l-94 -135h-112l-95 135h96l55 -76zM442 379q-59 57 -138 57q-73 0 -119 -50t-46 -125t48.5 -126t120.5 -51t136 58l31 -90q-73 -65 -173 -65q-119 0 -196 78t-77 196q0 117 78 195.5t194 78.5q100 0 174 -64z" />
    <glyph glyph-name="Dcaron" unicode="&#x10e;" horiz-adv-x="646" 
d="M332 879h95l-94 -135h-112l-95 135h96l55 -76zM73 700h165q175 0 274 -93t99 -257q0 -169 -99 -259.5t-274 -90.5h-165v700zM249 97q115 0 181 65t66 188q0 119 -66.5 185.5t-180.5 66.5h-65v-505h65z" />
    <glyph glyph-name="dcaron" unicode="&#x10f;" horiz-adv-x="621" 
d="M555 0h-103v68q-63 -81 -168 -81q-112 0 -183.5 76.5t-71.5 196.5q0 122 68.5 198.5t179.5 76.5q65 0 108.5 -28t60.5 -55v271h109v-723zM607 723h112l-44 -174h-75zM450 259q0 83 -44 131t-112 48t-111.5 -50t-43.5 -129t44 -127.5t112 -48.5q70 0 112.5 51t42.5 125z
" />
    <glyph glyph-name="Dcroat" unicode="&#x110;" horiz-adv-x="646" 
d="M23 402h57v298h165q175 0 274 -93t99 -257q0 -169 -99 -259.5t-274 -90.5h-165v304h-57v98zM256 97q115 0 181 65t66 188q0 119 -66.5 185.5t-180.5 66.5h-65v-200h127v-98h-127v-207h65z" />
    <glyph glyph-name="dcroat" unicode="&#x111;" horiz-adv-x="616" 
d="M555 0h-103v68q-63 -81 -168 -81q-112 0 -183.5 76.5t-71.5 196.5q0 122 68.5 198.5t179.5 76.5q65 0 108.5 -28t60.5 -55v125h-128v74h128v72h109v-72h62v-74h-62v-577zM450 259q0 83 -44 131t-112 48t-111.5 -50t-43.5 -129t44 -127.5t112 -48.5q70 0 112.5 51
t42.5 125z" />
    <glyph glyph-name="Emacron" unicode="&#x112;" horiz-adv-x="478" 
d="M126 840h255v-82h-255v82zM73 700h346v-100h-235v-195h204v-99h-204v-206h245v-100h-356v700z" />
    <glyph glyph-name="emacron" unicode="&#x113;" horiz-adv-x="562" 
d="M162 698h255v-82h-255v82zM30 259q0 120 73 198t181 78q117 0 184 -74.5t67 -198.5q0 -18 -1 -27h-393q1 -69 46.5 -111t115.5 -42q94 0 144 73l72 -54q-25 -43 -80 -78.5t-138 -35.5q-121 0 -196 76t-75 196zM424 310q-3 63 -42 98.5t-97 35.5q-57 0 -96 -36.5
t-44 -97.5h279z" />
    <glyph glyph-name="Ebreve" unicode="&#x114;" horiz-adv-x="478" 
d="M249 744q-66 0 -102.5 37.5t-36.5 97.5h81q0 -67 58 -67q59 0 59 67h81q0 -60 -37 -97.5t-103 -37.5zM73 700h346v-100h-235v-195h204v-99h-204v-206h245v-100h-356v700z" />
    <glyph glyph-name="ebreve" unicode="&#x115;" horiz-adv-x="562" 
d="M284 584q-66 0 -102.5 37.5t-36.5 97.5h81q0 -67 58 -67q59 0 59 67h81q0 -60 -37 -97.5t-103 -37.5zM30 259q0 120 73 198t181 78q117 0 184 -74.5t67 -198.5q0 -18 -1 -27h-393q1 -69 46.5 -111t115.5 -42q94 0 144 73l72 -54q-25 -43 -80 -78.5t-138 -35.5
q-121 0 -196 76t-75 196zM424 310q-3 63 -42 98.5t-97 35.5q-57 0 -96 -36.5t-44 -97.5h279z" />
    <glyph glyph-name="Edotaccent" unicode="&#x116;" horiz-adv-x="478" 
d="M192 809q0 29 20 48.5t48 19.5t48 -19.5t20 -48.5t-20 -48.5t-48 -19.5t-48 19.5t-20 48.5zM73 700h346v-100h-235v-195h204v-99h-204v-206h245v-100h-356v700z" />
    <glyph glyph-name="edotaccent" unicode="&#x117;" horiz-adv-x="562" 
d="M220 651q0 29 20 48.5t48 19.5t48 -19.5t20 -48.5t-20 -48.5t-48 -19.5t-48 19.5t-20 48.5zM30 259q0 120 73 198t181 78q117 0 184 -74.5t67 -198.5q0 -18 -1 -27h-393q1 -69 46.5 -111t115.5 -42q94 0 144 73l72 -54q-25 -43 -80 -78.5t-138 -35.5q-121 0 -196 76
t-75 196zM424 310q-3 63 -42 98.5t-97 35.5q-57 0 -96 -36.5t-44 -97.5h279z" />
    <glyph glyph-name="Eogonek" unicode="&#x118;" horiz-adv-x="478" 
d="M73 700h346v-100h-235v-195h204v-99h-204v-206h245v-100q-11 -4 -23.5 -12t-26 -25.5t-13.5 -36.5t14 -30t36 -11v-85q-12 -2 -25 -2q-48 0 -83 24.5t-35 72.5q0 36 24 64t52 41h-276v700z" />
    <glyph glyph-name="eogonek" unicode="&#x119;" horiz-adv-x="562" 
d="M274 -105q0 51 48 93q-7 -1 -21 -1q-121 0 -196 76t-75 196t73 198t181 78q117 0 184 -74.5t67 -198.5q0 -18 -1 -27h-393q1 -69 46.5 -111t115.5 -42q94 0 144 73l72 -54q-28 -47 -90 -84t-62 -87q0 -19 14 -32t36 -13v-85q-12 -2 -25 -2q-48 0 -83 24.5t-35 72.5z
M424 310q-3 63 -42 98.5t-97 35.5q-57 0 -96 -36.5t-44 -97.5h279z" />
    <glyph glyph-name="Ecaron" unicode="&#x11a;" horiz-adv-x="478" 
d="M315 879h95l-94 -135h-112l-95 135h96l55 -76zM73 700h346v-100h-235v-195h204v-99h-204v-206h245v-100h-356v700z" />
    <glyph glyph-name="ecaron" unicode="&#x11b;" horiz-adv-x="562" 
d="M341 724h95l-94 -135h-112l-95 135h96l55 -76zM30 259q0 120 73 198t181 78q117 0 184 -74.5t67 -198.5q0 -18 -1 -27h-393q1 -69 46.5 -111t115.5 -42q94 0 144 73l72 -54q-25 -43 -80 -78.5t-138 -35.5q-121 0 -196 76t-75 196zM424 310q-3 63 -42 98.5t-97 35.5
q-57 0 -96 -36.5t-44 -97.5h279z" />
    <glyph glyph-name="Gcircumflex" unicode="&#x11c;" horiz-adv-x="742" 
d="M397 821l-55 -77h-96l95 135h112l94 -135h-95zM393 713q169 0 267 -109l-70 -73q-79 79 -193 79q-110 0 -178 -73.5t-68 -185.5q0 -116 69.5 -188.5t176.5 -72.5q70 0 117.5 20.5t68.5 42.5v118h-144v95h249v-267q-120 -112 -297 -112q-152 0 -254 101.5t-102 261.5
q0 154 101.5 258.5t256.5 104.5z" />
    <glyph glyph-name="gcircumflex" unicode="&#x11d;" horiz-adv-x="611" 
d="M305 666l-55 -77h-96l95 135h112l94 -135h-95zM129 -58q69 -40 153 -40q73 0 118.5 31t45.5 100v35q-10 -15 -25.5 -29.5t-55 -33t-86.5 -18.5q-112 0 -181 76t-69 197t70.5 198t181.5 77q64 0 107.5 -27.5t62.5 -55.5v70h103v-453q0 -138 -73.5 -199.5t-197.5 -61.5
q-104 0 -189 50zM449 261q0 79 -44 128t-112 49t-111.5 -49.5t-43.5 -127.5q0 -79 44 -128t112 -49q70 0 112.5 49.5t42.5 127.5z" />
    <glyph glyph-name="Gbreve" unicode="&#x11e;" horiz-adv-x="742" 
d="M392 744q-66 0 -102.5 37.5t-36.5 97.5h81q0 -67 58 -67q59 0 59 67h81q0 -60 -37 -97.5t-103 -37.5zM393 713q169 0 267 -109l-70 -73q-79 79 -193 79q-110 0 -178 -73.5t-68 -185.5q0 -116 69.5 -188.5t176.5 -72.5q70 0 117.5 20.5t68.5 42.5v118h-144v95h249v-267
q-120 -112 -297 -112q-152 0 -254 101.5t-102 261.5q0 154 101.5 258.5t256.5 104.5z" />
    <glyph glyph-name="gbreve" unicode="&#x11f;" horiz-adv-x="611" 
d="M304 584q-66 0 -102.5 37.5t-36.5 97.5h81q0 -67 58 -67q59 0 59 67h81q0 -60 -37 -97.5t-103 -37.5zM129 -58q69 -40 153 -40q73 0 118.5 31t45.5 100v35q-10 -15 -25.5 -29.5t-55 -33t-86.5 -18.5q-112 0 -181 76t-69 197t70.5 198t181.5 77q64 0 107.5 -27.5
t62.5 -55.5v70h103v-453q0 -138 -73.5 -199.5t-197.5 -61.5q-104 0 -189 50zM449 261q0 79 -44 128t-112 49t-111.5 -49.5t-43.5 -127.5q0 -79 44 -128t112 -49q70 0 112.5 49.5t42.5 127.5z" />
    <glyph glyph-name="Gdotaccent" unicode="&#x120;" horiz-adv-x="742" 
d="M330 809q0 29 20 48.5t48 19.5t48 -19.5t20 -48.5t-20 -48.5t-48 -19.5t-48 19.5t-20 48.5zM393 713q169 0 267 -109l-70 -73q-79 79 -193 79q-110 0 -178 -73.5t-68 -185.5q0 -116 69.5 -188.5t176.5 -72.5q70 0 117.5 20.5t68.5 42.5v118h-144v95h249v-267
q-120 -112 -297 -112q-152 0 -254 101.5t-102 261.5q0 154 101.5 258.5t256.5 104.5z" />
    <glyph glyph-name="gdotaccent" unicode="&#x121;" horiz-adv-x="611" 
d="M229 651q0 29 19.5 48.5t48.5 19.5t48.5 -19.5t19.5 -48.5t-19.5 -48.5t-48.5 -19.5t-48.5 19.5t-19.5 48.5zM129 -58q69 -40 153 -40q73 0 118.5 31t45.5 100v35q-10 -15 -25.5 -29.5t-55 -33t-86.5 -18.5q-112 0 -181 76t-69 197t70.5 198t181.5 77q64 0 107.5 -27.5
t62.5 -55.5v70h103v-453q0 -138 -73.5 -199.5t-197.5 -61.5q-104 0 -189 50zM449 261q0 79 -44 128t-112 49t-111.5 -49.5t-43.5 -127.5q0 -79 44 -128t112 -49q70 0 112.5 49.5t42.5 127.5z" />
    <glyph glyph-name="uni0122" unicode="&#x122;" horiz-adv-x="742" 
d="M393 713q169 0 267 -109l-70 -73q-79 79 -193 79q-110 0 -178 -73.5t-68 -185.5q0 -116 69.5 -188.5t176.5 -72.5q70 0 117.5 20.5t68.5 42.5v118h-144v95h249v-267q-120 -112 -297 -112q-152 0 -254 101.5t-102 261.5q0 154 101.5 258.5t256.5 104.5zM338 -94
q0 26 18.5 44.5t44.5 18.5q29 0 48 -20t19 -52q0 -97 -83 -161l-41 42q38 31 46 66q-24 4 -38 22t-14 40z" />
    <glyph glyph-name="uni0123" unicode="&#x123;" horiz-adv-x="611" 
d="M364 638q0 -26 -18.5 -44.5t-44.5 -18.5q-29 0 -48 20t-19 52q0 97 83 161l41 -42q-38 -31 -46 -66q24 -4 38 -22t14 -40zM129 -58q69 -40 153 -40q73 0 118.5 31t45.5 100v35q-10 -15 -25.5 -29.5t-55 -33t-86.5 -18.5q-112 0 -181 76t-69 197t70.5 198t181.5 77
q64 0 107.5 -27.5t62.5 -55.5v70h103v-453q0 -138 -73.5 -199.5t-197.5 -61.5q-104 0 -189 50zM449 261q0 79 -44 128t-112 49t-111.5 -49.5t-43.5 -127.5q0 -79 44 -128t112 -49q70 0 112.5 49.5t42.5 127.5z" />
    <glyph glyph-name="Hcircumflex" unicode="&#x124;" horiz-adv-x="700" 
d="M354 821l-55 -77h-96l95 135h112l94 -135h-95zM73 700h111v-295h332v295h111v-700h-111v304h-332v-304h-111v700z" />
    <glyph glyph-name="hcircumflex" unicode="&#x125;" horiz-adv-x="555" 
d="M285 826l-55 -77h-96l95 135h112l94 -135h-95zM316 535q94 0 138 -63t44 -158v-314h-108v323q0 53 -29.5 83.5t-75.5 30.5q-51 0 -83 -34t-32 -88v-315h-109v723h109v-269q19 34 58 57.5t88 23.5z" />
    <glyph glyph-name="Hbar" unicode="&#x126;" horiz-adv-x="700" 
d="M73 513h-59v80h59v107h111v-107h332v107h111v-107h59v-80h-59v-513h-111v304h-332v-304h-111v513zM516 405v108h-332v-108h332z" />
    <glyph glyph-name="hbar" unicode="&#x127;" horiz-adv-x="555" 
d="M316 535q94 0 138 -63t44 -158v-314h-108v323q0 53 -29.5 83.5t-75.5 30.5q-51 0 -83 -34t-32 -88v-315h-109v581h-57v74h57v68h109v-68h129v-74h-129v-127q19 34 58 57.5t88 23.5z" />
    <glyph glyph-name="Itilde" unicode="&#x128;" horiz-adv-x="258" 
d="M196 751q-28 0 -69 20.5t-57 20.5q-33 0 -35 -41h-72q0 54 28.5 87t73.5 33q29 0 69 -20.5t55 -20.5q16 0 25.5 11t9.5 30h72q0 -55 -27.5 -87.5t-72.5 -32.5zM73 700h111v-700h-111v700z" />
    <glyph glyph-name="itilde" unicode="&#x129;" 
d="M182 594q-28 0 -69 20.5t-57 20.5q-33 0 -35 -41h-72q0 54 28.5 87t73.5 33q29 0 69 -20.5t55 -20.5q16 0 25.5 11t9.5 30h72q0 -55 -27.5 -87.5t-72.5 -32.5zM61 522h109v-522h-109v522z" />
    <glyph glyph-name="Imacron" unicode="&#x12a;" horiz-adv-x="258" 
d="M2 840h255v-82h-255v82zM73 700h111v-700h-111v700z" />
    <glyph glyph-name="imacron" unicode="&#x12b;" 
d="M-12 698h255v-82h-255v82zM61 522h109v-522h-109v522z" />
    <glyph glyph-name="Ibreve" unicode="&#x12c;" horiz-adv-x="258" 
d="M129 744q-66 0 -102.5 37.5t-36.5 97.5h81q0 -67 58 -67q59 0 59 67h81q0 -60 -37 -97.5t-103 -37.5zM73 700h111v-700h-111v700z" />
    <glyph glyph-name="ibreve" unicode="&#x12d;" 
d="M115 584q-66 0 -102.5 37.5t-36.5 97.5h81q0 -67 58 -67q59 0 59 67h81q0 -60 -37 -97.5t-103 -37.5zM61 522h109v-522h-109v522z" />
    <glyph glyph-name="Iogonek" unicode="&#x12e;" horiz-adv-x="258" 
d="M73 700h111v-700q-11 -4 -23.5 -12t-26 -25.5t-13.5 -36.5t14 -30t36 -11v-85q-12 -2 -25 -2q-48 0 -83 24.5t-35 72.5q0 36 24 64t52 41h-31v700z" />
    <glyph glyph-name="iogonek" unicode="&#x12f;" 
d="M47 651q0 29 19.5 48.5t48.5 19.5t48.5 -19.5t19.5 -48.5t-19.5 -48.5t-48.5 -19.5t-48.5 19.5t-19.5 48.5zM61 522h109v-522q-11 -4 -23.5 -12t-26 -25.5t-13.5 -36.5t14 -30t36 -11v-85q-12 -2 -25 -2q-48 0 -83 24.5t-35 72.5q0 36 24 64t52 41h-29v522z" />
    <glyph glyph-name="Idotaccent" unicode="&#x130;" horiz-adv-x="258" 
d="M63 809q0 29 19.5 48.5t48.5 19.5t48.5 -19.5t19.5 -48.5t-19.5 -48.5t-48.5 -19.5t-48.5 19.5t-19.5 48.5zM73 700h111v-700h-111v700z" />
    <glyph glyph-name="dotlessi" unicode="&#x131;" 
d="M61 522h109v-522h-109v522z" />
    <glyph glyph-name="IJ" unicode="&#x132;" horiz-adv-x="618" 
d="M73 700h111v-700h-111v700zM292 103q33 -8 62 -8q79 0 79 89v516h111v-534q0 -86 -47.5 -129t-129.5 -43q-52 0 -88 10z" />
    <glyph glyph-name="ij" unicode="&#x133;" horiz-adv-x="463" 
d="M47 651q0 29 19.5 48.5t48.5 19.5t48.5 -19.5t19.5 -48.5t-19.5 -48.5t-48.5 -19.5t-48.5 19.5t-19.5 48.5zM278 651q0 29 20 48.5t48 19.5t48 -19.5t20 -48.5t-20 -48.5t-48 -19.5t-48 19.5t-20 48.5zM61 522h109v-522h-109v522zM292 522h109v-534q0 -179 -182 -179
l-30 2v92q14 -1 23 -1q80 0 80 90v530z" />
    <glyph glyph-name="Jcircumflex" unicode="&#x134;" horiz-adv-x="360" 
d="M223 821l-55 -77h-96l95 135h112l94 -135h-95zM34 103q33 -8 62 -8q79 0 79 89v516h111v-534q0 -86 -47.5 -129t-129.5 -43q-52 0 -88 10z" />
    <glyph glyph-name="jcircumflex" unicode="&#x135;" 
d="M116 666l-55 -77h-96l95 135h112l94 -135h-95zM61 522h109v-534q0 -179 -182 -179l-30 2v92q14 -1 23 -1q80 0 80 90v530z" />
    <glyph glyph-name="uni0136" unicode="&#x136;" horiz-adv-x="590" 
d="M73 700h111v-323l258 323h125l-273 -338l283 -362h-128l-265 346v-346h-111v700zM242 -94q0 26 18.5 44.5t44.5 18.5q29 0 48 -20t19 -52q0 -97 -83 -161l-41 42q38 31 46 66q-24 4 -38 22t-14 40z" />
    <glyph glyph-name="uni0137" unicode="&#x137;" horiz-adv-x="505" 
d="M61 723h109v-424l193 223h124l-209 -236l223 -286h-129l-202 274v-274h-109v723zM198 -94q0 26 18.5 44.5t44.5 18.5q29 0 48 -20t19 -52q0 -97 -83 -161l-41 42q38 31 46 66q-24 4 -38 22t-14 40z" />
    <glyph glyph-name="kgreenlandic" unicode="&#x138;" horiz-adv-x="505" 
d="M61 522h109v-229l193 229h124l-209 -242l223 -280h-129l-202 268v-268h-109v522z" />
    <glyph glyph-name="Lacute" unicode="&#x139;" horiz-adv-x="452" 
d="M151 884h116l-93 -143h-92zM73 700h111v-600h245v-100h-356v700z" />
    <glyph glyph-name="lacute" unicode="&#x13a;" 
d="M135 893h116l-93 -143h-92zM61 723h109v-723h-109v723z" />
    <glyph glyph-name="uni013B" unicode="&#x13b;" horiz-adv-x="452" 
d="M73 700h111v-600h245v-100h-356v700zM199 -94q0 26 18.5 44.5t44.5 18.5q29 0 48 -20t19 -52q0 -97 -83 -161l-41 42q38 31 46 66q-24 4 -38 22t-14 40z" />
    <glyph glyph-name="uni013C" unicode="&#x13c;" 
d="M61 723h109v-723h-109v723zM52 -94q0 26 18.5 44.5t44.5 18.5q29 0 48 -20t19 -52q0 -97 -83 -161l-41 42q38 31 46 66q-24 4 -38 22t-14 40z" />
    <glyph glyph-name="Lcaron" unicode="&#x13d;" horiz-adv-x="452" 
d="M73 700h111v-600h245v-100h-356v700zM284 699h112l-44 -174h-75z" />
    <glyph glyph-name="lcaron" unicode="&#x13e;" 
d="M61 723h109v-723h-109v723zM218 723h113l-44 -174h-76z" />
    <glyph glyph-name="Ldot" unicode="&#x13f;" horiz-adv-x="452" 
d="M73 700h111v-600h245v-100h-356v700zM269 368q0 29 20.5 50t49.5 21t50 -21t21 -50t-21 -50t-50 -21t-49.5 21t-20.5 50z" />
    <glyph glyph-name="ldot" unicode="&#x140;" horiz-adv-x="365" 
d="M61 723h109v-723h-109v723zM215 341q0 29 20.5 50t49.5 21t50 -21t21 -50t-21 -50t-50 -21t-49.5 21t-20.5 50z" />
    <glyph glyph-name="Lslash" unicode="&#x141;" horiz-adv-x="452" 
d="M16 321l57 33v346h111v-283l116 69v-108l-116 -67v-211h245v-100h-356v249l-57 -32v104z" />
    <glyph glyph-name="lslash" unicode="&#x142;" horiz-adv-x="286" 
d="M26 362l59 37v324h109v-259l65 42v-109l-65 -41v-356h-109v293l-59 -37v106z" />
    <glyph glyph-name="Nacute" unicode="&#x143;" horiz-adv-x="709" 
d="M375 884h116l-93 -143h-92zM72 700h112l343 -520v520h109v-700h-110l-344 517v-517h-110v700z" />
    <glyph glyph-name="nacute" unicode="&#x144;" horiz-adv-x="554" 
d="M292 725h116l-93 -143h-92zM315 535q94 0 138 -63t44 -158v-314h-108v323q0 53 -29.5 83.5t-75.5 30.5q-51 0 -82.5 -34t-31.5 -88v-315h-109v522h107v-68q19 34 58.5 57.5t88.5 23.5z" />
    <glyph glyph-name="uni0145" unicode="&#x145;" horiz-adv-x="709" 
d="M72 700h112l343 -520v520h109v-700h-110l-344 517v-517h-110v700zM289 -94q0 26 18.5 44.5t44.5 18.5q29 0 48 -20t19 -52q0 -97 -83 -161l-41 42q38 31 46 66q-24 4 -38 22t-14 40z" />
    <glyph glyph-name="uni0146" unicode="&#x146;" horiz-adv-x="554" 
d="M315 535q94 0 138 -63t44 -158v-314h-108v323q0 53 -29.5 83.5t-75.5 30.5q-51 0 -82.5 -34t-31.5 -88v-315h-109v522h107v-68q19 34 58.5 57.5t88.5 23.5zM212 -94q0 26 18.5 44.5t44.5 18.5q29 0 48 -20t19 -52q0 -97 -83 -161l-41 42q38 31 46 66q-24 4 -38 22t-14 40
z" />
    <glyph glyph-name="Ncaron" unicode="&#x147;" horiz-adv-x="709" 
d="M413 879h95l-94 -135h-112l-95 135h96l55 -76zM72 700h112l343 -520v520h109v-700h-110l-344 517v-517h-110v700z" />
    <glyph glyph-name="ncaron" unicode="&#x148;" horiz-adv-x="554" 
d="M340 724h95l-94 -135h-112l-95 135h96l55 -76zM315 535q94 0 138 -63t44 -158v-314h-108v323q0 53 -29.5 83.5t-75.5 30.5q-51 0 -82.5 -34t-31.5 -88v-315h-109v522h107v-68q19 34 58.5 57.5t88.5 23.5z" />
    <glyph glyph-name="napostrophe" unicode="&#x149;" horiz-adv-x="605" 
d="M-24 659q0 26 18.5 44.5t44.5 18.5q29 0 48 -20t19 -52q0 -97 -83 -161l-41 42q38 31 46 66q-24 4 -38 22t-14 40zM365 535q94 0 138 -63t44 -158v-314h-108v323q0 53 -29.5 83.5t-75.5 30.5q-51 0 -82.5 -34t-31.5 -88v-315h-109v522h107v-68q19 34 58.5 57.5t88.5 23.5
z" />
    <glyph glyph-name="Eng" unicode="&#x14a;" horiz-adv-x="709" 
d="M385 -82q33 -8 62 -8q79 0 79 90l-344 523v-523h-110v700h112l343 -526v526h109v-719q0 -86 -47.5 -129t-128.5 -43q-52 0 -88 10z" />
    <glyph glyph-name="eng" unicode="&#x14b;" horiz-adv-x="554" 
d="M389 323q0 53 -29.5 83.5t-75.5 30.5q-51 0 -82.5 -34t-31.5 -88v-315h-109v522h107v-68q19 34 58.5 57.5t88.5 23.5q94 0 138 -63t44 -158v-326q0 -179 -181 -179l-30 2v92q14 -1 23 -1q80 0 80 90v331z" />
    <glyph glyph-name="Omacron" unicode="&#x14c;" horiz-adv-x="790" 
d="M267 840h255v-82h-255v82zM34 350q0 155 102.5 259t258.5 104t258 -104.5t102 -258.5q0 -155 -102 -259t-259 -104q-156 0 -258 103.5t-102 259.5zM150 350q0 -112 69.5 -185.5t175.5 -73.5q105 0 175 73.5t70 185.5q0 111 -70 185t-175 74q-106 0 -175.5 -74t-69.5 -185
z" />
    <glyph glyph-name="omacron" unicode="&#x14d;" horiz-adv-x="611" 
d="M180 698h255v-82h-255v82zM29 260q0 118 79 196.5t197 78.5q120 0 198.5 -78t78.5 -196t-79 -196t-198 -78q-120 0 -198 77t-78 196zM139 260q0 -77 46.5 -126.5t119.5 -49.5t120.5 50t47.5 127t-47.5 127t-120.5 50t-119.5 -50.5t-46.5 -127.5z" />
    <glyph glyph-name="Obreve" unicode="&#x14e;" horiz-adv-x="790" 
d="M396 744q-66 0 -102.5 37.5t-36.5 97.5h81q0 -67 58 -67q59 0 59 67h81q0 -60 -37 -97.5t-103 -37.5zM34 350q0 155 102.5 259t258.5 104t258 -104.5t102 -258.5q0 -155 -102 -259t-259 -104q-156 0 -258 103.5t-102 259.5zM150 350q0 -112 69.5 -185.5t175.5 -73.5
q105 0 175 73.5t70 185.5q0 111 -70 185t-175 74q-106 0 -175.5 -74t-69.5 -185z" />
    <glyph glyph-name="obreve" unicode="&#x14f;" horiz-adv-x="611" 
d="M301 584q-66 0 -102.5 37.5t-36.5 97.5h81q0 -67 58 -67q59 0 59 67h81q0 -60 -37 -97.5t-103 -37.5zM29 260q0 118 79 196.5t197 78.5q120 0 198.5 -78t78.5 -196t-79 -196t-198 -78q-120 0 -198 77t-78 196zM139 260q0 -77 46.5 -126.5t119.5 -49.5t120.5 50t47.5 127
t-47.5 127t-120.5 50t-119.5 -50.5t-46.5 -127.5z" />
    <glyph glyph-name="Ohungarumlaut" unicode="&#x150;" horiz-adv-x="790" 
d="M347 884h108l-93 -143h-84zM504 884h107l-92 -143h-85zM34 350q0 155 102.5 259t258.5 104t258 -104.5t102 -258.5q0 -155 -102 -259t-259 -104q-156 0 -258 103.5t-102 259.5zM150 350q0 -112 69.5 -185.5t175.5 -73.5q105 0 175 73.5t70 185.5q0 111 -70 185t-175 74
q-106 0 -175.5 -74t-69.5 -185z" />
    <glyph glyph-name="ohungarumlaut" unicode="&#x151;" horiz-adv-x="611" 
d="M260 725h108l-93 -143h-84zM417 725h107l-92 -143h-85zM29 260q0 118 79 196.5t197 78.5q120 0 198.5 -78t78.5 -196t-79 -196t-198 -78q-120 0 -198 77t-78 196zM139 260q0 -77 46.5 -126.5t119.5 -49.5t120.5 50t47.5 127t-47.5 127t-120.5 50t-119.5 -50.5
t-46.5 -127.5z" />
    <glyph glyph-name="OE" unicode="&#x152;" horiz-adv-x="1046" 
d="M34 350q0 155 102.5 259t258.5 104q48 0 100 -13h492v-100h-326q73 -79 90 -195h205v-99h-204q-12 -121 -91 -206h336v-100h-502q-52 -13 -101 -13q-156 0 -258 103.5t-102 259.5zM150 350q0 -112 69.5 -185.5t175.5 -73.5q105 0 175 73.5t70 185.5q0 111 -70 185
t-175 74q-106 0 -175.5 -74t-69.5 -185z" />
    <glyph glyph-name="oe" unicode="&#x153;" horiz-adv-x="1002" 
d="M29 260q0 118 79 196.5t197 78.5q70 0 127 -29.5t92 -81.5q31 52 84 81.5t116 29.5q117 0 184 -74.5t67 -198.5q0 -18 -1 -27h-393q1 -70 46 -111.5t116 -41.5q94 0 144 73l72 -54q-25 -43 -80 -78.5t-138 -35.5q-72 0 -128 29.5t-89 81.5q-35 -52 -92.5 -81.5
t-126.5 -29.5q-120 0 -198 77t-78 196zM864 310q-3 63 -42 98.5t-97 35.5q-57 0 -96 -36.5t-44 -97.5h279zM139 260q0 -77 46.5 -126.5t119.5 -49.5t120.5 50t47.5 127t-47.5 127t-120.5 50t-119.5 -50.5t-46.5 -127.5z" />
    <glyph glyph-name="Racute" unicode="&#x154;" horiz-adv-x="566" 
d="M275 884h116l-93 -143h-92zM73 700h188q110 0 172 -57.5t62 -148.5q0 -61 -30.5 -109.5t-83.5 -70.5l170 -314h-123l-147 289h-97v-289h-111v700zM259 384q54 0 87.5 29t33.5 81q0 50 -31 79.5t-90 29.5h-75v-219h75z" />
    <glyph glyph-name="racute" unicode="&#x155;" horiz-adv-x="337" 
d="M198 725h116l-93 -143h-92zM317 425q-147 0 -147 -200v-225h-109v522h107v-82q16 41 56 68t93 27v-110z" />
    <glyph glyph-name="uni0156" unicode="&#x156;" horiz-adv-x="566" 
d="M73 700h188q110 0 172 -57.5t62 -148.5q0 -61 -30.5 -109.5t-83.5 -70.5l170 -314h-123l-147 289h-97v-289h-111v700zM259 384q54 0 87.5 29t33.5 81q0 50 -31 79.5t-90 29.5h-75v-219h75zM221 -94q0 26 18.5 44.5t44.5 18.5q29 0 48 -20t19 -52q0 -97 -83 -161l-41 42
q38 31 46 66q-24 4 -38 22t-14 40z" />
    <glyph glyph-name="uni0157" unicode="&#x157;" horiz-adv-x="337" 
d="M317 425q-147 0 -147 -200v-225h-109v522h107v-82q16 41 56 68t93 27v-110zM75 -94q0 26 18.5 44.5t44.5 18.5q29 0 48 -20t19 -52q0 -97 -83 -161l-41 42q38 31 46 66q-24 4 -38 22t-14 40z" />
    <glyph glyph-name="Rcaron" unicode="&#x158;" horiz-adv-x="566" 
d="M317 879h95l-94 -135h-112l-95 135h96l55 -76zM73 700h188q110 0 172 -57.5t62 -148.5q0 -61 -30.5 -109.5t-83.5 -70.5l170 -314h-123l-147 289h-97v-289h-111v700zM259 384q54 0 87.5 29t33.5 81q0 50 -31 79.5t-90 29.5h-75v-219h75z" />
    <glyph glyph-name="rcaron" unicode="&#x159;" horiz-adv-x="337" 
d="M233 724h95l-94 -135h-112l-95 135h96l55 -76zM317 425q-147 0 -147 -200v-225h-109v522h107v-82q16 41 56 68t93 27v-110z" />
    <glyph glyph-name="Sacute" unicode="&#x15a;" horiz-adv-x="514" 
d="M267 884h116l-93 -143h-92zM122 189q38 -99 137 -99q48 0 76.5 25t28.5 69q0 40 -32.5 69.5t-78.5 50.5t-92.5 45t-79 68.5t-32.5 106.5q0 83 57.5 136t152.5 53q47 0 85.5 -15t62.5 -39t37.5 -45.5t21.5 -43.5l-92 -41q-39 82 -117 82q-45 0 -71 -24.5t-26 -61.5
q0 -32 23.5 -57.5t58.5 -41.5t76.5 -37t76.5 -43.5t58.5 -62t23.5 -91.5q0 -90 -60.5 -147.5t-162.5 -57.5q-51 0 -92 15.5t-67.5 41t-42 50t-24.5 51.5z" />
    <glyph glyph-name="sacute" unicode="&#x15b;" horiz-adv-x="426" 
d="M223 725h116l-93 -143h-92zM92 145q47 -68 125 -68q36 0 58 17t22 48q0 27 -26 46t-63.5 32.5t-75 30.5t-63.5 51.5t-26 84.5q0 68 50.5 108t128.5 40q66 0 108.5 -29.5t61.5 -67.5l-75 -50q-36 58 -101 58q-31 0 -50.5 -15.5t-19.5 -41.5q0 -27 26.5 -45t64 -31
t74.5 -29.5t63.5 -51t26.5 -85.5q0 -72 -53.5 -116t-135.5 -44q-130 0 -188 104z" />
    <glyph glyph-name="Scircumflex" unicode="&#x15c;" horiz-adv-x="514" 
d="M259 821l-55 -77h-96l95 135h112l94 -135h-95zM122 189q38 -99 137 -99q48 0 76.5 25t28.5 69q0 40 -32.5 69.5t-78.5 50.5t-92.5 45t-79 68.5t-32.5 106.5q0 83 57.5 136t152.5 53q47 0 85.5 -15t62.5 -39t37.5 -45.5t21.5 -43.5l-92 -41q-39 82 -117 82
q-45 0 -71 -24.5t-26 -61.5q0 -32 23.5 -57.5t58.5 -41.5t76.5 -37t76.5 -43.5t58.5 -62t23.5 -91.5q0 -90 -60.5 -147.5t-162.5 -57.5q-51 0 -92 15.5t-67.5 41t-42 50t-24.5 51.5z" />
    <glyph glyph-name="scircumflex" unicode="&#x15d;" horiz-adv-x="426" 
d="M223 666l-55 -77h-96l95 135h112l94 -135h-95zM92 145q47 -68 125 -68q36 0 58 17t22 48q0 27 -26 46t-63.5 32.5t-75 30.5t-63.5 51.5t-26 84.5q0 68 50.5 108t128.5 40q66 0 108.5 -29.5t61.5 -67.5l-75 -50q-36 58 -101 58q-31 0 -50.5 -15.5t-19.5 -41.5
q0 -27 26.5 -45t64 -31t74.5 -29.5t63.5 -51t26.5 -85.5q0 -72 -53.5 -116t-135.5 -44q-130 0 -188 104z" />
    <glyph glyph-name="Scedilla" unicode="&#x15e;" horiz-adv-x="514" 
d="M122 189q38 -99 137 -99q48 0 76.5 25t28.5 69q0 40 -32.5 69.5t-78.5 50.5t-92.5 45t-79 68.5t-32.5 106.5q0 83 57.5 136t152.5 53q47 0 85.5 -15t62.5 -39t37.5 -45.5t21.5 -43.5l-92 -41q-39 82 -117 82q-45 0 -71 -24.5t-26 -61.5q0 -32 23.5 -57.5t58.5 -41.5
t76.5 -37t76.5 -43.5t58.5 -62t23.5 -91.5q0 -83 -52 -139t-142 -64l-4 -32q78 -14 78 -89q0 -49 -33 -73t-85 -24q-25 0 -50 7l13 61q16 -4 31 -4q50 0 50 37q0 36 -55 36l-17 -1l12 82q-81 8 -129 54.5t-66 101.5z" />
    <glyph glyph-name="scedilla" unicode="&#x15f;" horiz-adv-x="426" 
d="M92 145q47 -68 125 -68q36 0 58 17t22 48q0 27 -26 46t-63.5 32.5t-75 30.5t-63.5 51.5t-26 84.5q0 68 50.5 108t128.5 40q66 0 108.5 -29.5t61.5 -67.5l-75 -50q-36 58 -101 58q-31 0 -50.5 -15.5t-19.5 -41.5q0 -27 26.5 -45t64 -31t74.5 -29.5t63.5 -51t26.5 -85.5
q0 -66 -45.5 -108.5t-117.5 -49.5l-4 -32q78 -14 78 -89q0 -49 -33 -73t-85 -24q-26 0 -50 7l13 61q16 -4 31 -4q50 0 50 37q0 36 -55 36l-17 -1l12 82q-106 14 -154 102z" />
    <glyph glyph-name="Scaron" unicode="&#x160;" horiz-adv-x="514" 
d="M311 879h95l-94 -135h-112l-95 135h96l55 -76zM122 189q38 -99 137 -99q48 0 76.5 25t28.5 69q0 40 -32.5 69.5t-78.5 50.5t-92.5 45t-79 68.5t-32.5 106.5q0 83 57.5 136t152.5 53q47 0 85.5 -15t62.5 -39t37.5 -45.5t21.5 -43.5l-92 -41q-39 82 -117 82
q-45 0 -71 -24.5t-26 -61.5q0 -32 23.5 -57.5t58.5 -41.5t76.5 -37t76.5 -43.5t58.5 -62t23.5 -91.5q0 -90 -60.5 -147.5t-162.5 -57.5q-51 0 -92 15.5t-67.5 41t-42 50t-24.5 51.5z" />
    <glyph glyph-name="scaron" unicode="&#x161;" horiz-adv-x="426" 
d="M276 724h95l-94 -135h-112l-95 135h96l55 -76zM92 145q47 -68 125 -68q36 0 58 17t22 48q0 27 -26 46t-63.5 32.5t-75 30.5t-63.5 51.5t-26 84.5q0 68 50.5 108t128.5 40q66 0 108.5 -29.5t61.5 -67.5l-75 -50q-36 58 -101 58q-31 0 -50.5 -15.5t-19.5 -41.5
q0 -27 26.5 -45t64 -31t74.5 -29.5t63.5 -51t26.5 -85.5q0 -72 -53.5 -116t-135.5 -44q-130 0 -188 104z" />
    <glyph glyph-name="uni0162" unicode="&#x162;" horiz-adv-x="511" 
d="M196 600h-176v100h463v-100h-176v-600h-34l-6 -43q78 -14 78 -89q0 -49 -33 -73t-85 -24q-25 0 -50 7l13 61q16 -4 31 -4q50 0 50 37q0 36 -55 36l-17 -1l13 93h-16v600z" />
    <glyph glyph-name="uni0163" unicode="&#x163;" horiz-adv-x="314" 
d="M70 631h108v-109h106v-90h-106v-243q0 -58 21 -78.5t68 -20.5l21 1v-94q-19 -4 -53 -4l-20 1l-5 -37q78 -14 78 -89q0 -49 -33 -73t-85 -24q-26 0 -50 7l13 61q16 -4 31 -4q50 0 50 37q0 36 -55 36l-17 -1l14 101q-86 38 -86 198v226h-58v90h58v109z" />
    <glyph glyph-name="Tcaron" unicode="&#x164;" horiz-adv-x="511" 
d="M309 879h95l-94 -135h-112l-95 135h96l55 -76zM196 600h-176v100h463v-100h-176v-600h-111v600z" />
    <glyph glyph-name="tcaron" unicode="&#x165;" horiz-adv-x="314" 
d="M219 723h112l-44 -170h-75zM70 631h108v-109h106v-90h-106v-243q0 -58 21 -78.5t68 -20.5l21 1v-94q-19 -4 -53 -4q-90 0 -127.5 55t-37.5 158v226h-58v90h58v109z" />
    <glyph glyph-name="Tbar" unicode="&#x166;" horiz-adv-x="511" 
d="M76 410h120v190h-176v100h463v-100h-176v-190h131v-84h-131v-326h-111v326h-120v84z" />
    <glyph glyph-name="tbar" unicode="&#x167;" horiz-adv-x="314" 
d="M70 631h108v-109h106v-90h-106v-97h101v-75h-101v-71q0 -58 21 -78.5t68 -20.5l21 1v-94q-23 -4 -53 -4q-140 0 -159 135q-6 42 -6 94v38h-59v75h59v97h-58v90h58v109z" />
    <glyph glyph-name="Utilde" unicode="&#x168;" horiz-adv-x="681" 
d="M418 751q-28 0 -69 20.5t-57 20.5q-33 0 -35 -41h-72q0 54 28.5 87t73.5 33q29 0 69 -20.5t55 -20.5q16 0 25.5 11t9.5 30h72q0 -55 -27.5 -87.5t-72.5 -32.5zM341 -13q-129 0 -200 73t-71 197v443h111v-442q0 -78 41.5 -123t118.5 -45q76 0 118 45.5t42 123.5v441h110
v-442q0 -121 -72.5 -196t-197.5 -75z" />
    <glyph glyph-name="utilde" unicode="&#x169;" horiz-adv-x="550" 
d="M344 594q-28 0 -68.5 20.5t-57.5 20.5q-33 0 -35 -41h-72q0 54 28.5 87t73.5 33q29 0 69 -20.5t55 -20.5q16 0 25.5 11t9.5 30h72q0 -55 -27.5 -87.5t-72.5 -32.5zM239 -13q-94 0 -138 63t-44 158v314h108v-323q0 -53 29.5 -83.5t75.5 -30.5q51 0 82.5 34t31.5 88v315
h109v-522h-107v68q-19 -34 -58 -57.5t-89 -23.5z" />
    <glyph glyph-name="Umacron" unicode="&#x16a;" horiz-adv-x="687" 
d="M221 840h255v-82h-255v82zM341 -13q-129 0 -200 73t-71 197v443h111v-442q0 -78 41.5 -123t118.5 -45q76 0 118 45.5t42 123.5v441h110v-442q0 -121 -72.5 -196t-197.5 -75z" />
    <glyph glyph-name="umacron" unicode="&#x16b;" horiz-adv-x="550" 
d="M152 698h255v-82h-255v82zM239 -13q-94 0 -138 63t-44 158v314h108v-323q0 -53 29.5 -83.5t75.5 -30.5q51 0 82.5 34t31.5 88v315h109v-522h-107v68q-19 -34 -58 -57.5t-89 -23.5z" />
    <glyph glyph-name="Ubreve" unicode="&#x16c;" horiz-adv-x="681" 
d="M348 744q-66 0 -102.5 37.5t-36.5 97.5h81q0 -67 58 -67q59 0 59 67h81q0 -60 -37 -97.5t-103 -37.5zM341 -13q-129 0 -200 73t-71 197v443h111v-442q0 -78 41.5 -123t118.5 -45q76 0 118 45.5t42 123.5v441h110v-442q0 -121 -72.5 -196t-197.5 -75z" />
    <glyph glyph-name="ubreve" unicode="&#x16d;" horiz-adv-x="550" 
d="M277 584q-66 0 -102.5 37.5t-36.5 97.5h81q0 -67 58 -67q59 0 59 67h81q0 -60 -37 -97.5t-103 -37.5zM239 -13q-94 0 -138 63t-44 158v314h108v-323q0 -53 29.5 -83.5t75.5 -30.5q51 0 82.5 34t31.5 88v315h109v-522h-107v68q-19 -34 -58 -57.5t-89 -23.5z" />
    <glyph glyph-name="Uring" unicode="&#x16e;" horiz-adv-x="681" 
d="M247 829q0 41 28 67t70 26q44 0 71.5 -26t27.5 -66q0 -41 -28 -67.5t-71 -26.5q-42 0 -70 26.5t-28 66.5zM306 829q0 -18 11 -29t29 -11t28.5 11t10.5 30q0 18 -11 29t-29 11q-17 0 -28 -11.5t-11 -29.5zM341 -13q-129 0 -200 73t-71 197v443h111v-442q0 -78 41.5 -123
t118.5 -45q76 0 118 45.5t42 123.5v441h110v-442q0 -121 -72.5 -196t-197.5 -75z" />
    <glyph glyph-name="uring" unicode="&#x16f;" horiz-adv-x="550" 
d="M180 664q0 41 28 67t70 26q44 0 71.5 -26t27.5 -66q0 -41 -28 -67.5t-71 -26.5q-42 0 -70 26.5t-28 66.5zM239 664q0 -18 11 -29t29 -11t28.5 11t10.5 30q0 18 -11 29t-29 11q-17 0 -28 -11.5t-11 -29.5zM239 -13q-94 0 -138 63t-44 158v314h108v-323q0 -53 29.5 -83.5
t75.5 -30.5q51 0 82.5 34t31.5 88v315h109v-522h-107v68q-19 -34 -58 -57.5t-89 -23.5z" />
    <glyph glyph-name="Uhungarumlaut" unicode="&#x170;" horiz-adv-x="687" 
d="M293 884h108l-93 -143h-84zM450 884h107l-92 -143h-85zM341 -13q-129 0 -200 73t-71 197v443h111v-442q0 -78 41.5 -123t118.5 -45q76 0 118 45.5t42 123.5v441h110v-442q0 -121 -72.5 -196t-197.5 -75z" />
    <glyph glyph-name="uhungarumlaut" unicode="&#x171;" horiz-adv-x="550" 
d="M216 725h108l-93 -143h-84zM373 725h107l-92 -143h-85zM239 -13q-94 0 -138 63t-44 158v314h108v-323q0 -53 29.5 -83.5t75.5 -30.5q51 0 82.5 34t31.5 88v315h109v-522h-107v68q-19 -34 -58 -57.5t-89 -23.5z" />
    <glyph glyph-name="Uogonek" unicode="&#x172;" horiz-adv-x="681" 
d="M278 -105q0 54 54 92q-125 3 -193.5 75.5t-68.5 194.5v443h111v-442q0 -78 41.5 -123t118.5 -45q76 0 118 45.5t42 123.5v441h110v-442q0 -97 -47 -166t-132 -93q-12 -5 -23.5 -13t-24.5 -24.5t-13 -35.5t14 -30t36 -11v-85q-12 -2 -25 -2q-48 0 -83 24.5t-35 72.5z" />
    <glyph glyph-name="uogonek" unicode="&#x173;" horiz-adv-x="550" 
d="M337 -105q0 36 24 64t52 41h-27v68q-19 -34 -58 -57.5t-89 -23.5q-94 0 -138 63t-44 158v314h108v-323q0 -53 29.5 -83.5t75.5 -30.5q51 0 82.5 34t31.5 88v315h109v-522q-11 -4 -23.5 -12t-26 -25.5t-13.5 -36.5t14 -30t36 -11v-85q-12 -2 -25 -2q-48 0 -83 24.5
t-35 72.5z" />
    <glyph glyph-name="Wcircumflex" unicode="&#x174;" horiz-adv-x="960" 
d="M481 821l-55 -77h-96l95 135h112l94 -135h-95zM480 534l-151 -534h-125l-194 700h119l143 -562l155 562h105l156 -562l143 562h118l-193 -700h-125z" />
    <glyph glyph-name="wcircumflex" unicode="&#x175;" horiz-adv-x="822" 
d="M411 666l-55 -77h-96l95 135h112l94 -135h-95zM411 374l-118 -374h-120l-166 522h118l114 -400q1 3 120 400h104l119 -400l115 400h118l-166 -522h-121z" />
    <glyph glyph-name="Ycircumflex" unicode="&#x176;" horiz-adv-x="558" 
d="M280 821l-55 -77h-96l95 135h112l94 -135h-95zM224 324l-216 376h126l145 -273l148 273h123l-216 -376v-324h-110v324z" />
    <glyph glyph-name="ycircumflex" unicode="&#x177;" horiz-adv-x="524" 
d="M266 666l-55 -77h-96l95 135h112l94 -135h-95zM139 -179l74 188l-207 513h117l141 -380l139 380h114l-273 -701h-105z" />
    <glyph glyph-name="Ydieresis" unicode="&#x178;" horiz-adv-x="558" 
d="M137 823q0 24 17 41.5t42 17.5t42 -17.5t17 -41.5q0 -25 -17 -42t-42 -17t-42 17t-17 42zM312 823q0 25 16.5 42t42.5 17q25 0 42 -17.5t17 -41.5q0 -25 -17 -42t-42 -17q-26 0 -42.5 17t-16.5 42zM224 324l-216 376h126l145 -273l148 273h123l-216 -376v-324h-110v324z
" />
    <glyph glyph-name="Zacute" unicode="&#x179;" horiz-adv-x="599" 
d="M307 884h116l-93 -143h-92zM34 76l378 525h-367v99h513v-76l-379 -525h382v-99h-527v76z" />
    <glyph glyph-name="zacute" unicode="&#x17a;" horiz-adv-x="465" 
d="M236 725h116l-93 -143h-92zM30 71l267 359h-259v92h391v-72l-266 -359h270v-91h-403v71z" />
    <glyph glyph-name="Zdotaccent" unicode="&#x17b;" horiz-adv-x="599" 
d="M232 809q0 29 20 48.5t48 19.5t48 -19.5t20 -48.5t-20 -48.5t-48 -19.5t-48 19.5t-20 48.5zM34 76l378 525h-367v99h513v-76l-379 -525h382v-99h-527v76z" />
    <glyph glyph-name="zdotaccent" unicode="&#x17c;" horiz-adv-x="465" 
d="M168 651q0 29 20 48.5t48 19.5t48 -19.5t20 -48.5t-20 -48.5t-48 -19.5t-48 19.5t-20 48.5zM30 71l267 359h-259v92h391v-72l-266 -359h270v-91h-403v71z" />
    <glyph glyph-name="Zcaron" unicode="&#x17d;" horiz-adv-x="599" 
d="M354 879h95l-94 -135h-112l-95 135h96l55 -76zM34 76l378 525h-367v99h513v-76l-379 -525h382v-99h-527v76z" />
    <glyph glyph-name="zcaron" unicode="&#x17e;" horiz-adv-x="465" 
d="M290 724h95l-94 -135h-112l-95 135h96l55 -76zM30 71l267 359h-259v92h391v-72l-266 -359h270v-91h-403v71z" />
    <glyph glyph-name="florin" unicode="&#x192;" horiz-adv-x="466" 
d="M221 2q-2 -17 -8 -47q-17 -79 -67.5 -113t-117.5 -34q-37 0 -61 6l13 91q21 -4 41 -4q44 0 65 26.5t30 93.5l43 316h-66v90h78l15 111q12 90 65.5 131t124.5 41l61 -6l-12 -92q-15 5 -41 5q-39 0 -62 -21.5t-30 -72.5l-14 -96h96v-90h-108z" />
    <glyph glyph-name="Aringacute" unicode="&#x1fa;" horiz-adv-x="645" 
d="M338 998h116l-93 -143h-92zM223 741q0 41 28 67t70 26q44 0 71.5 -26t27.5 -66q0 -43 -30 -70l245 -672h-112l-72 204h-256l-73 -204h-112l244 671q-31 26 -31 70zM282 741q0 -18 11 -29t29 -11t28.5 11t10.5 30q0 18 -11 29t-29 11q-17 0 -28 -11.5t-11 -29.5zM323 580
l-97 -283h194z" />
    <glyph glyph-name="aringacute" unicode="&#x1fb;" horiz-adv-x="518" 
d="M278 916h116l-93 -143h-92zM164 655q0 41 28 67t70 26q44 0 71.5 -26t27.5 -66q0 -41 -28 -67.5t-71 -26.5q-42 0 -70 26.5t-28 66.5zM223 655q0 -18 11 -29t29 -11t28.5 11t10.5 30q0 18 -11 29t-29 11q-17 0 -28 -11.5t-11 -29.5zM29 161q0 76 56 124t146 48
q83 0 125 -38v49q0 45 -29.5 70.5t-81.5 25.5q-72 0 -146 -41l-42 76q93 60 199 60q208 0 208 -198v-337h-95l-9 39q-47 -52 -134 -52q-84 0 -140.5 48.5t-56.5 125.5zM138 164q0 -39 31 -64.5t80 -25.5q48 0 79 25t31 65q0 41 -30.5 65.5t-80.5 24.5q-49 0 -79.5 -25.5
t-30.5 -64.5z" />
    <glyph glyph-name="AEacute" unicode="&#x1fc;" horiz-adv-x="835" 
d="M524 884h116l-93 -143h-92zM369 700h407v-100h-235v-195h203v-99h-203v-206h244v-100h-355v204h-201l-100 -204h-121zM272 297h158v303h-10z" />
    <glyph glyph-name="aeacute" unicode="&#x1fd;" horiz-adv-x="884" 
d="M439 725h116l-93 -143h-92zM464 235q1 -69 46 -111t115 -42q95 0 145 73l71 -54q-24 -43 -79 -78.5t-138 -35.5q-145 0 -213 99q-52 -99 -185 -99q-84 0 -140.5 48.5t-56.5 125.5q0 76 56 124t146 48q83 0 125 -38v49q0 45 -29.5 70.5t-81.5 25.5q-72 0 -146 -41l-42 76
q93 60 199 60q127 0 171 -84q68 84 179 84q117 0 184 -74.5t67 -198.5q0 -18 -1 -27h-392zM746 310q-3 63 -42 98.5t-97 35.5q-56 0 -95 -36.5t-44 -97.5h278zM138 164q0 -39 31 -64.5t80 -25.5q48 0 78 25t30 65q0 41 -29.5 65.5t-79.5 24.5q-49 0 -79.5 -25.5t-30.5 -64.5
z" />
    <glyph glyph-name="Oslashacute" unicode="&#x1fe;" horiz-adv-x="791" 
d="M403 884h116l-93 -143h-92zM35 350q0 155 102 259t258 104q105 0 192 -53l49 62l63 -50l-48 -62q105 -103 105 -260q0 -155 -102.5 -259t-258.5 -104q-109 0 -195 53l-49 -62l-63 50l49 62q-102 104 -102 260zM150 350q0 -100 59 -170l310 394q-56 35 -124 35
q-106 0 -175.5 -74t-69.5 -185zM640 350q0 100 -60 171l-312 -395q56 -35 127 -35q105 0 175 73.5t70 185.5z" />
    <glyph glyph-name="oslashacute" unicode="&#x1ff;" horiz-adv-x="603" 
d="M313 725h116l-93 -143h-92zM29 260q0 118 79 196.5t197 78.5q79 0 144 -38l38 48l56 -44l-37 -47q76 -78 76 -193q0 -118 -79 -196t-198 -78q-77 0 -139 34l-39 -49l-55 44l37 46q-80 78 -80 198zM139 260q0 -67 37 -112l209 268q-36 22 -80 22q-73 0 -119.5 -50.5
t-46.5 -127.5zM473 261q0 61 -35 107l-208 -266q32 -18 75 -18q73 0 120.5 50t47.5 127z" />
    <glyph glyph-name="uni0218" unicode="&#x218;" horiz-adv-x="514" 
d="M122 189q38 -99 137 -99q48 0 76.5 25t28.5 69q0 40 -32.5 69.5t-78.5 50.5t-92.5 45t-79 68.5t-32.5 106.5q0 83 57.5 136t152.5 53q47 0 85.5 -15t62.5 -39t37.5 -45.5t21.5 -43.5l-92 -41q-39 82 -117 82q-45 0 -71 -24.5t-26 -61.5q0 -32 23.5 -57.5t58.5 -41.5
t76.5 -37t76.5 -43.5t58.5 -62t23.5 -91.5q0 -90 -60.5 -147.5t-162.5 -57.5q-51 0 -92 15.5t-67.5 41t-42 50t-24.5 51.5zM190 -94q0 26 18.5 44.5t44.5 18.5q29 0 48 -20t19 -52q0 -97 -83 -161l-41 42q38 31 46 66q-24 4 -38 22t-14 40z" />
    <glyph glyph-name="uni0219" unicode="&#x219;" horiz-adv-x="426" 
d="M92 145q47 -68 125 -68q36 0 58 17t22 48q0 27 -26 46t-63.5 32.5t-75 30.5t-63.5 51.5t-26 84.5q0 68 50.5 108t128.5 40q66 0 108.5 -29.5t61.5 -67.5l-75 -50q-36 58 -101 58q-31 0 -50.5 -15.5t-19.5 -41.5q0 -27 26.5 -45t64 -31t74.5 -29.5t63.5 -51t26.5 -85.5
q0 -72 -53.5 -116t-135.5 -44q-130 0 -188 104zM153 -94q0 26 18.5 44.5t44.5 18.5q29 0 48 -20t19 -52q0 -97 -83 -161l-41 42q38 31 46 66q-24 4 -38 22t-14 40z" />
    <glyph glyph-name="uni021A" unicode="&#x21a;" horiz-adv-x="511" 
d="M196 600h-176v100h463v-100h-176v-600h-111v600zM182 -94q0 26 18.5 44.5t44.5 18.5q29 0 48 -20t19 -52q0 -97 -83 -161l-41 42q38 31 46 66q-24 4 -38 22t-14 40z" />
    <glyph glyph-name="uni021B" unicode="&#x21b;" horiz-adv-x="314" 
d="M70 631h108v-109h106v-90h-106v-243q0 -58 21 -78.5t68 -20.5l21 1v-94q-19 -4 -53 -4q-90 0 -127.5 55t-37.5 158v226h-58v90h58v109zM131 -94q0 26 18.5 44.5t44.5 18.5q29 0 48 -20t19 -52q0 -97 -83 -161l-41 42q38 31 46 66q-24 4 -38 22t-14 40z" />
    <glyph glyph-name="uni0237" unicode="&#x237;" 
d="M61 522h109v-534q0 -179 -182 -179l-30 2v92q14 -1 23 -1q80 0 80 90v530z" />
    <glyph glyph-name="circumflex" unicode="&#x2c6;" horiz-adv-x="448" 
d="M224 666l-55 -77h-96l95 135h112l94 -135h-95z" />
    <glyph glyph-name="caron" unicode="&#x2c7;" horiz-adv-x="448" 
d="M279 724h95l-94 -135h-112l-95 135h96l55 -76z" />
    <glyph glyph-name="breve" unicode="&#x2d8;" horiz-adv-x="448" 
d="M223 584q-66 0 -102.5 37.5t-36.5 97.5h81q0 -67 58 -67q59 0 59 67h81q0 -60 -37 -97.5t-103 -37.5z" />
    <glyph glyph-name="dotaccent" unicode="&#x2d9;" horiz-adv-x="448" 
d="M156 651q0 29 20 48.5t48 19.5t48 -19.5t20 -48.5t-20 -48.5t-48 -19.5t-48 19.5t-20 48.5z" />
    <glyph glyph-name="ring" unicode="&#x2da;" horiz-adv-x="448" 
d="M125 664q0 41 28 67t70 26q44 0 71.5 -26t27.5 -66q0 -41 -28 -67.5t-71 -26.5q-42 0 -70 26.5t-28 66.5zM184 664q0 -18 11 -29t29 -11t28.5 11t10.5 30q0 18 -11 29t-29 11q-17 0 -28 -11.5t-11 -29.5z" />
    <glyph glyph-name="ogonek" unicode="&#x2db;" horiz-adv-x="448" 
d="M146 -105q0 36 24 64t52 41h80q-11 -4 -23.5 -12t-26 -25.5t-13.5 -36.5t14 -30t36 -11v-85q-12 -2 -25 -2q-48 0 -83 24.5t-35 72.5z" />
    <glyph glyph-name="tilde" unicode="&#x2dc;" horiz-adv-x="448" 
d="M290 594q-28 0 -69 20.5t-57 20.5q-33 0 -35 -41h-72q0 54 28.5 87t73.5 33q29 0 69 -20.5t55 -20.5q16 0 25.5 11t9.5 30h72q0 -55 -27.5 -87.5t-72.5 -32.5z" />
    <glyph glyph-name="hungarumlaut" unicode="&#x2dd;" horiz-adv-x="461" 
d="M133 725h108l-93 -143h-84zM290 725h107l-92 -143h-85z" />
    <glyph glyph-name="Wgrave" unicode="&#x1e80;" horiz-adv-x="960" 
d="M521 741h-93l-92 143h115zM480 534l-151 -534h-125l-194 700h119l143 -562l155 562h105l156 -562l143 562h118l-193 -700h-125z" />
    <glyph glyph-name="wgrave" unicode="&#x1e81;" horiz-adv-x="822" 
d="M459 582h-93l-92 143h115zM411 374l-118 -374h-120l-166 522h118l114 -400q1 3 120 400h104l119 -400l115 400h118l-166 -522h-121z" />
    <glyph glyph-name="Wacute" unicode="&#x1e82;" horiz-adv-x="960" 
d="M486 884h116l-93 -143h-92zM480 534l-151 -534h-125l-194 700h119l143 -562l155 562h105l156 -562l143 562h118l-193 -700h-125z" />
    <glyph glyph-name="wacute" unicode="&#x1e83;" horiz-adv-x="822" 
d="M428 725h116l-93 -143h-92zM411 374l-118 -374h-120l-166 522h118l114 -400q1 3 120 400h104l119 -400l115 400h118l-166 -522h-121z" />
    <glyph glyph-name="Wdieresis" unicode="&#x1e84;" horiz-adv-x="960" 
d="M335 812q0 24 17 41.5t42 17.5t42 -17.5t17 -41.5q0 -25 -17 -42t-42 -17t-42 17t-17 42zM510 812q0 25 16.5 42t42.5 17q25 0 42 -17.5t17 -41.5q0 -25 -17 -42t-42 -17q-26 0 -42.5 17t-16.5 42zM480 534l-151 -534h-125l-194 700h119l143 -562l155 562h105l156 -562
l143 562h118l-193 -700h-125z" />
    <glyph glyph-name="wdieresis" unicode="&#x1e85;" horiz-adv-x="822" 
d="M264 653q0 24 17 41.5t42 17.5t42 -17.5t17 -41.5q0 -25 -17 -42t-42 -17t-42 17t-17 42zM439 653q0 25 16.5 42t42.5 17q25 0 42 -17.5t17 -41.5q0 -25 -17 -42t-42 -17q-26 0 -42.5 17t-16.5 42zM411 374l-118 -374h-120l-166 522h118l114 -400q1 3 120 400h104
l119 -400l115 400h118l-166 -522h-121z" />
    <glyph glyph-name="Ygrave" unicode="&#x1ef2;" horiz-adv-x="558" 
d="M337 741h-93l-92 143h115zM224 324l-216 376h126l145 -273l148 273h123l-216 -376v-324h-110v324z" />
    <glyph glyph-name="ygrave" unicode="&#x1ef3;" horiz-adv-x="527" 
d="M332 582h-93l-92 143h115zM139 -179l74 188l-207 513h117l141 -380l139 380h114l-273 -701h-105z" />
    <glyph glyph-name="endash" unicode="&#x2013;" horiz-adv-x="624" 
d="M43 350h538v-91h-538v91z" />
    <glyph glyph-name="emdash" unicode="&#x2014;" horiz-adv-x="892" 
d="M43 350h805v-91h-805v91z" />
    <glyph glyph-name="quoteleft" unicode="&#x2018;" horiz-adv-x="205" 
d="M173 530q0 -29 -20.5 -50t-49.5 -21q-31 0 -52 20.5t-21 56.5q0 115 94 188l46 -48q-18 -12 -35.5 -33.5t-20.5 -43.5q27 -5 43 -24.5t16 -44.5z" />
    <glyph glyph-name="quoteright" unicode="&#x2019;" horiz-adv-x="205" 
d="M32 653q0 29 20 50t49 21q32 0 52.5 -20.5t20.5 -55.5q0 -116 -94 -189l-46 48q49 35 56 77q-27 5 -42.5 25t-15.5 44z" />
    <glyph glyph-name="quotesinglbase" unicode="&#x201a;" horiz-adv-x="228" 
d="M43 57q0 29 20.5 50t49.5 21q31 0 52 -20.5t21 -55.5q0 -114 -94 -189l-46 48q49 35 56 77q-27 5 -43 25t-16 44z" />
    <glyph glyph-name="quotedblleft" unicode="&#x201c;" horiz-adv-x="379" 
d="M173 530q0 -29 -20.5 -50t-49.5 -21q-31 0 -52 20.5t-21 56.5q0 115 94 188l46 -48q-18 -12 -35.5 -33.5t-20.5 -43.5q27 -5 43 -24.5t16 -44.5zM347 530q0 -29 -20.5 -50t-49.5 -21q-31 0 -52 20.5t-21 56.5q0 115 94 188l46 -48q-18 -12 -35.5 -33.5t-20.5 -43.5
q27 -5 43 -24.5t16 -44.5z" />
    <glyph glyph-name="quotedblright" unicode="&#x201d;" horiz-adv-x="379" 
d="M32 653q0 29 20 50t49 21q32 0 52.5 -20.5t20.5 -55.5q0 -116 -94 -189l-46 48q49 35 56 77q-27 5 -42.5 25t-15.5 44zM206 653q0 29 20 50t49 21q32 0 52.5 -20.5t20.5 -55.5q0 -116 -94 -189l-46 48q49 35 56 77q-27 5 -42.5 25t-15.5 44z" />
    <glyph glyph-name="quotedblbase" unicode="&#x201e;" horiz-adv-x="379" 
d="M32 57q0 29 20 50t49 21q32 0 52.5 -20.5t20.5 -55.5q0 -116 -94 -189l-46 48q49 35 56 77q-27 5 -42.5 25t-15.5 44zM206 57q0 29 20 50t49 21q32 0 52.5 -20.5t20.5 -55.5q0 -116 -94 -189l-46 48q49 35 56 77q-27 5 -42.5 25t-15.5 44z" />
    <glyph glyph-name="dagger" unicode="&#x2020;" horiz-adv-x="402" 
d="M146 436h-116v95h116v169h107v-169h118v-95h-118v-436h-107v436z" />
    <glyph glyph-name="daggerdbl" unicode="&#x2021;" horiz-adv-x="399" 
d="M30 274h116v151h-116v95h116v180h107v-180h118v-95h-118v-151h118v-95h-118v-179h-107v179h-116v95z" />
    <glyph glyph-name="bullet" unicode="&#x2022;" horiz-adv-x="406" 
d="M203 138q-74 0 -123 50t-49 122t49 122t123 50t123 -50t49 -122t-49 -122t-123 -50z" />
    <glyph glyph-name="perthousand" unicode="&#x2030;" horiz-adv-x="1155" 
d="M196 394q-70 0 -116 45.5t-46 113.5q0 67 46 113.5t115 46.5q71 0 118 -46.5t47 -113.5t-46.5 -113t-117.5 -46zM602 700h108l-532 -700h-107zM197 474q35 0 56 22.5t21 56.5q0 33 -22 56t-56 23t-55 -22.5t-21 -56.5q0 -33 22 -56t55 -23zM419 146q0 67 46.5 113.5
t115.5 46.5q71 0 118 -46.5t47 -113.5t-47 -113t-117 -46t-116.5 45.5t-46.5 113.5zM794 146q0 67 46.5 113.5t115.5 46.5q71 0 118 -46.5t47 -113.5t-47 -113t-117 -46t-116.5 45.5t-46.5 113.5zM505 146q0 -34 21.5 -56.5t55.5 -22.5q35 0 56 22.5t21 56.5t-21.5 56.5
t-56.5 22.5q-33 0 -54.5 -23t-21.5 -56zM880 146q0 -34 21.5 -56.5t55.5 -22.5q35 0 56 22.5t21 56.5t-21.5 56.5t-56.5 22.5q-33 0 -54.5 -23t-21.5 -56z" />
    <glyph glyph-name="guilsinglleft" unicode="&#x2039;" horiz-adv-x="286" 
d="M31 293l123 186h100l-123 -186l123 -185h-100z" />
    <glyph glyph-name="guilsinglright" unicode="&#x203a;" horiz-adv-x="286" 
d="M131 108h-100l123 185l-123 186h100l123 -186z" />
    <glyph glyph-name="fraction" unicode="&#x2044;" horiz-adv-x="440" 
d="M-19 -41l382 782h96l-382 -782h-96z" />
    <glyph glyph-name="Euro" unicode="&#x20ac;" horiz-adv-x="636" 
d="M26 316h51q-2 16 -2 34q0 21 2 41h-51v76h66q32 108 119.5 177t203.5 69q107 0 175 -44l-46 -90q-58 32 -124 32q-73 0 -128 -39.5t-79 -104.5h249l-7 -76h-261q-3 -19 -3 -40q0 -19 3 -35h255l-7 -76h-226q23 -66 78 -107t129 -41q79 0 132 36l44 -89q-22 -19 -70 -35.5
t-105 -16.5q-126 0 -214.5 71t-118.5 182h-65v76z" />
    <glyph glyph-name="uni2116" unicode="&#x2116;" horiz-adv-x="1132" 
d="M717 532q0 75 51 128t131 53t131 -53t51 -128t-51 -127t-131 -52t-131 52t-51 127zM72 700h112l343 -526v526h109v-700h-110l-344 523v-523h-110v700zM803 532q0 -41 26 -69t70 -28q42 0 69 28.5t27 68.5q0 41 -26.5 70t-69.5 29t-69.5 -29t-26.5 -70zM731 294h335v-92
h-335v92z" />
    <glyph glyph-name="trademark" unicode="&#x2122;" horiz-adv-x="753" 
d="M121 630h-90v70h257v-70h-90v-290h-77v290zM487 380l-88 194v-234h-75v360h96l103 -231l103 231h96v-360h-74v234l-89 -194h-72z" />
    <glyph glyph-name="minus" unicode="&#x2212;" horiz-adv-x="550" 
d="M38 356h474v-89h-474v89z" />
    <glyph glyph-name="uniF6C3" unicode="&#xf6c3;" horiz-adv-x="0" 
d="M-195 -94q0 26 18.5 44.5t44.5 18.5q29 0 48 -20t19 -52q0 -97 -83 -161l-41 42q38 31 46 66q-24 4 -38 22t-14 40z" />
    <glyph glyph-name="hyphen.caps" horiz-adv-x="354" 
d="M43 399h267v-99h-267v99z" />
    <glyph glyph-name="endash.caps" horiz-adv-x="624" 
d="M43 398h538v-91h-538v91z" />
    <glyph glyph-name="emdash.caps" horiz-adv-x="892" 
d="M43 398h805v-91h-805v91z" />
    <glyph glyph-name="guillemotleft.caps" horiz-adv-x="459" 
d="M31 357l123 186h100l-123 -186l123 -185h-100zM328 543h100l-124 -186l124 -185h-100l-124 185z" />
    <glyph glyph-name="guillemotright.caps" horiz-adv-x="459" 
d="M255 357l-124 -185h-100l124 185l-124 186h100zM305 172h-100l123 185l-123 186h100l123 -186z" />
    <glyph glyph-name="guilsinglleft.caps" horiz-adv-x="286" 
d="M31 357l123 186h100l-123 -186l123 -185h-100z" />
    <glyph glyph-name="guilsinglright.caps" horiz-adv-x="286" 
d="M255 357l-124 -185h-100l124 185l-124 186h100z" />
    <glyph glyph-name="parenleft.caps" horiz-adv-x="319" 
d="M164 64q0 -87 85 -87v-94q-193 0 -193 193v543q0 193 193 193v-94q-85 0 -85 -87v-567z" />
    <glyph glyph-name="parenright.caps" horiz-adv-x="319" 
d="M155 631q0 87 -85 87v94q193 0 193 -193v-543q0 -193 -193 -193v94q85 0 85 87v567z" />
    <glyph glyph-name="bracketleft.caps" horiz-adv-x="319" 
d="M56 812h193v-94h-85v-741h85v-94h-193v929z" />
    <glyph glyph-name="bracketright.caps" horiz-adv-x="316" 
d="M263 -117h-193v94h85v741h-85v94h193v-929z" />
    <glyph glyph-name="braceleft.caps" horiz-adv-x="368" 
d="M105 183q0 63 -18.5 88.5t-54.5 25.5v101q38 0 55.5 25t17.5 89v107q0 193 193 193v-94q-85 0 -85 -87v-153q0 -33 -8.5 -59t-21.5 -40t-23.5 -21.5t-19.5 -10.5q23 -6 48 -38t25 -92v-153q0 -87 85 -87v-94q-193 0 -193 193v107z" />
    <glyph glyph-name="bar.caps" horiz-adv-x="267" 
d="M82 838h103v-1025h-103v1025z" />
    <glyph glyph-name="braceright.caps" horiz-adv-x="367" 
d="M263 76q0 -193 -193 -193v94q85 0 85 87v153q0 60 25 92t48 38q-9 3 -19.5 10.5t-23.5 21.5t-21.5 40t-8.5 59v153q0 87 -85 87v94q193 0 193 -193v-107q0 -64 17.5 -89t55.5 -25v-101q-36 0 -54.5 -25.5t-18.5 -88.5v-107z" />
    <glyph glyph-name="slash.caps" horiz-adv-x="439" 
d="M322 777h97l-302 -858h-97z" />
    <glyph glyph-name="backslash.caps" horiz-adv-x="439" 
d="M419 -81h-97l-302 858h97z" />
    <glyph glyph-name="exclamdown.caps" horiz-adv-x="275" 
d="M67 642q0 29 21 50t50 21t50 -21t21 -50t-21 -50t-50 -21t-50 21t-21 50zM89 512h97l9 -512h-114z" />
    <glyph glyph-name="questiondown.caps" horiz-adv-x="475" 
d="M330 642q0 -29 -20.5 -50t-49.5 -21t-50 21t-21 50t21 50t50 21t49.5 -21t20.5 -50zM313 464q0 -38 -17 -70t-41.5 -55.5t-49.5 -46.5t-42 -51t-17 -59q0 -43 27 -70.5t75 -27.5q72 0 107 75l85 -39q-18 -52 -66 -92.5t-131 -40.5q-94 0 -151.5 53t-57.5 137
q0 43 18 79.5t43 61.5t50.5 47.5t43.5 49t18 54.5v43h106v-48z" />
    <glyph glyph-name="periodcentered.caps" horiz-adv-x="238" 
d="M48 356q0 29 20.5 50t49.5 21t50 -21t21 -50t-21 -50t-50 -21t-49.5 21t-20.5 50z" />
    <glyph glyph-name="bullet.caps" horiz-adv-x="406" 
d="M203 182q-74 0 -123 50t-49 122t49 122t123 50t123 -50t49 -122t-49 -122t-123 -50z" />
    <glyph glyph-name="zero.tab" horiz-adv-x="574" 
d="M520 350q0 -183 -53.5 -273t-180.5 -90t-180 90t-53 273t53 273t180 90t180.5 -90t53.5 -273zM165 350q0 -52 2 -87.5t9.5 -70.5t20.5 -55.5t35 -33t54 -12.5t54.5 12.5t35.5 33t20 55.5t9 70t2 88t-2 88t-9 70t-20 55.5t-35.5 33t-54.5 12.5q-39 0 -64 -17.5t-37 -55
t-16 -79t-4 -107.5z" />
    <glyph glyph-name="one.tab" horiz-adv-x="574" 
d="M89 0v100h163v490l-142 -64l-40 85l202 89h90v-600h142v-100h-415z" />
    <glyph glyph-name="two.tab" horiz-adv-x="574" 
d="M63 40q0 46 24 92.5t60 82t78.5 74.5t78.5 71t60 70.5t24 74.5q0 47 -30 76t-81 29q-91 0 -117 -95l-97 28q6 27 20 54t39 54.5t66.5 44.5t92.5 17q100 0 160 -56.5t60 -147.5q0 -55 -30 -107t-74 -92t-88 -75.5t-77.5 -71t-38.5 -65.5h317v-98h-447v40z" />
    <glyph glyph-name="three.tab" horiz-adv-x="574" 
d="M487 600l-164 -183q78 0 134.5 -52.5t56.5 -153.5q0 -97 -65.5 -160.5t-164.5 -63.5q-98 0 -153 48.5t-72 114.5l95 31q29 -92 128 -92q52 0 85.5 33.5t33.5 85.5q0 54 -32.5 84.5t-93.5 30.5h-79v87l166 192h-278v98h403v-100z" />
    <glyph glyph-name="four.tab" horiz-adv-x="574" 
d="M29 251l303 449h125v-434h87v-96h-87v-170h-109v170h-319v81zM348 266v303l-202 -303h202z" />
    <glyph glyph-name="five.tab" horiz-adv-x="574" 
d="M283 89q55 0 88 38t33 96q0 56 -34 94.5t-95 38.5q-55 0 -100 -41l-92 15l15 370h376v-99h-277l-8 -179q47 29 108 29q94 0 156.5 -61.5t62.5 -159.5q0 -105 -64 -174t-164 -69q-97 0 -154.5 49t-75.5 114l96 31q27 -92 129 -92z" />
    <glyph glyph-name="six.tab" horiz-adv-x="574" 
d="M327 713q89 0 161 -48l-46 -88q-47 32 -109 32q-61 0 -99 -35.5t-50 -79.5t-12 -96q49 62 140 62q95 0 151 -62t56 -167q0 -111 -62 -177.5t-166 -66.5q-67 0 -114.5 23.5t-73.5 68t-37 98t-11 123.5q0 413 272 413zM293 91q54 0 85 36t31 101q0 59 -30.5 95.5
t-87.5 36.5q-78 0 -124 -76q0 -43 4 -73.5t16.5 -60t39 -44.5t66.5 -15z" />
    <glyph glyph-name="seven.tab" horiz-adv-x="574" 
d="M514 700v-81l-247 -619h-119l244 601h-333v99h455z" />
    <glyph glyph-name="eight.tab" horiz-adv-x="574" 
d="M286 -13q-107 0 -172 58.5t-65 155.5q0 65 33 108.5t74 63.5q-33 19 -59.5 57.5t-26.5 89.5q0 86 60 139.5t156 53.5t156.5 -54t60.5 -139q0 -51 -27 -89.5t-60 -57.5q42 -20 75 -63.5t33 -108.5q0 -96 -66 -155t-172 -59zM286 416q46 0 76 28.5t30 70.5t-28 69.5
t-78 27.5t-77.5 -27.5t-27.5 -69.5t29.5 -70.5t75.5 -28.5zM286 318q-55 0 -89.5 -31.5t-34.5 -84.5q0 -48 33 -81t91 -33t91 33t33 81q0 53 -34.5 84.5t-89.5 31.5z" />
    <glyph glyph-name="nine.tab" horiz-adv-x="574" 
d="M247 -13q-89 0 -161 48l46 88q47 -32 109 -32q61 0 99 35.5t50 79.5t12 96q-49 -62 -140 -62q-95 0 -151 62t-56 167q0 111 62 177.5t166 66.5q67 0 114.5 -23.5t73.5 -68t37 -98t11 -123.5q0 -413 -272 -413zM281 609q-54 0 -85 -36t-31 -101q0 -59 30.5 -95.5
t87.5 -36.5q78 0 124 76q0 43 -4 73.5t-16.5 60t-39 44.5t-66.5 15z" />
    </font>
</defs>
</svg>
